<?xml version="1.0" encoding="utf-8"?>
<!-- Generator: Adobe Illustrator 26.0.1, SVG Export Plug-In . SVG Version: 6.00 Build 0)  -->
<svg version="1.1" id="Layer_1" xmlns="http://www.w3.org/2000/svg" xmlns:xlink="http://www.w3.org/1999/xlink" x="0px" y="0px"
	 viewBox="0 0 1200 1000" style="enable-background:new 0 0 1200 1000;" xml:space="preserve">
<style type="text/css">
	.st0{fill:#37110A;}
	.st1{fill:#4BAF00;}
	.st2{fill:#30AA21;}
</style>
<g>
	<g>
		<g>
			<g>
				<path class="st0" d="M401.07,626.66c39.66-11.32,83.36-16.48,124.31-9.19c41.45,7.38,79.56,27.88,120.35,37.9
					c52.3,12.84,106.5,18.04,160.22,19.82c18.14,0.6,36.29,0.97,54.44,1.45c6.28,0.17,12.56,0.44,18.85,0.63
					c2.56,0.07,6.32,0.31,9.76,0.82c-0.61,0.78-96.03,17.68-144.61,16.89c-27.79-0.46-55.48-2.82-82.93-6.93
					c-54.78-8.21-106.29-30.16-160.71-39.98c-27.48-4.96-55.44-6.51-83.12-2.33c-23,3.47-45.69,9.1-68.05,15.44
					c-12.94,3.67-25.85,7.54-38.57,11.93C318.67,664.31,362.33,637.72,401.07,626.66z"/>
			</g>
			<g>
				<path class="st1" d="M336.5,678.02c25.04-13.33,54.66-22.8,106.25-24.6c19.58-0.68,39.24,0.41,58.42,4.36
					c45.61,9.39,80.51,25.38,100.85,40.39C530.85,669.3,441.78,663.44,336.5,678.02z"/>
			</g>
		</g>
		<path class="st1" d="M845.36,312.27c-27.27-51.68-71.03-94.47-123.28-120.61c-50.94-25.94-109.74-35.02-166.3-27.64
			c-41.52,6.27-82.84,20.46-117.03,45.09c-9.17,4.74-17.34,11.04-25.17,17.71c-29.34,24.86-55,55.22-71.17,90.27
			c-24.21,43.05-32.69,93.79-31.24,142.8c4.26-45.21,18.64-89.36,42.62-127.99c23.75-38.6,57.41-70.72,96.15-94.08
			c39.53-24.12,85.22-36.44,131.19-39.79c41.32-1.25,83.09,5.34,121.32,21.28c56.36,23.04,104.72,64.79,135.91,117.03
			c22.48,37.01,35.27,79.26,39.64,122.23C880.49,408.05,869.17,356.91,845.36,312.27z"/>
		<path class="st1" d="M421.57,493.83c9.08-7.71,23.36-5.98,31.5,2.3c-6.5,6.14-27.42,22.03-30.56,24.79
			c3.87-1.84,26.39-15.28,34.11-19.56c3.58,7.63,3.12,17.08-1.79,24.01c-3.51,5.4-9.55,7.98-15.23,10.4
			c-12.9,3.97-26.6,3.12-39.69,0.61C402.89,520.67,408.4,503.93,421.57,493.83z"/>
		<path class="st1" d="M529.39,343.09c-0.93,11.88-12.22,20.78-23.83,20.72c0.22-8.94,3.7-34.98,3.96-39.15
			c-1.43,4.04-7.76,29.49-10.16,37.98c-7.94-2.83-14.32-9.82-15.78-18.19c-1.35-6.3,1.07-12.4,3.35-18.13
			c6.28-11.95,16.53-21.08,27.54-28.59C523.52,310.92,531.5,326.63,529.39,343.09z"/>
		<path class="st1" d="M548.32,255.95c8.44,8.41,7.88,22.78,0.31,31.58c-6.66-5.97-24.22-25.51-27.22-28.41
			c2.15,3.71,17.4,25.04,22.31,32.38c-7.31,4.2-16.77,4.52-24.08,0.2c-5.67-3.06-8.74-8.86-11.62-14.32
			c-5.02-12.53-5.31-26.26-3.88-39.5C520.03,239.54,537.17,243.66,548.32,255.95z"/>
		<path class="st1" d="M653.34,328.76c-4.26,10.52-17.09,15.36-27.61,11.97c2.77-8.06,13.43-30.71,14.87-34.43
			c-2.46,3.26-15.54,24.56-20.17,31.58c-6.39-4.86-10.18-13.05-9.09-21.07c0.58-6.11,4.54-10.96,8.27-15.51
			c9.14-9.04,21.09-14.38,33.25-18.04C657.27,297.84,660,314.41,653.34,328.76z"/>
		<path class="st1" d="M707.71,343.89c-1.77,11.22-13.16,18.83-24.18,17.91c0.87-8.48,6.12-32.96,6.68-36.9
			c-1.66,3.74-9.57,27.44-12.49,35.33c-7.33-3.28-12.87-10.4-13.63-18.46c-0.82-6.08,1.94-11.7,4.54-16.98
			c6.85-10.88,17.28-18.79,28.29-25.11C704.53,312.88,710.95,328.4,707.71,343.89z"/>
		<path class="st1" d="M484.51,409.51c4.56,2.41,6.16,8.42,4.14,13.02c-3.51-1.62-13.26-7.47-14.87-8.29
			c1.36,1.26,10.38,8.14,13.34,10.55c-2.49,2.67-6.36,4-9.93,3.14c-2.73-0.54-4.74-2.55-6.62-4.44c-3.67-4.54-5.53-10.18-6.63-15.84
			C470.73,406.32,478.34,405.84,484.51,409.51z"/>
		<path class="st1" d="M541.96,396.34c-6.73,6.24-17.77,5.39-24.31-0.71c4.79-4.95,20.36-17.88,22.68-20.1
			c-2.92,1.55-19.79,12.65-25.59,16.2c-3.02-5.75-2.98-13.04,0.56-18.54c2.52-4.27,7.08-6.46,11.36-8.52
			c9.79-3.49,20.37-3.3,30.52-1.81C555.44,375.06,551.76,388.12,541.96,396.34z"/>
		<path class="st1" d="M681.02,434.14c-3.51,4.82-10.66,5.65-15.59,2.58c2.44-3.75,10.75-13.93,11.96-15.64
			c-1.67,1.35-11.04,10.53-14.3,13.52c-2.64-3.29-3.52-7.94-1.95-11.89c1.08-3.04,3.71-5,6.19-6.85c5.81-3.44,12.57-4.64,19.23-4.96
			C686.96,418.9,686.24,427.69,681.02,434.14z"/>
		<path class="st1" d="M676.98,464.72c-5.95,0.39-11.16-4.58-11.96-10.33c4.44-0.53,17.59-0.65,19.67-0.82
			c-2.1-0.42-15.16-1.75-19.54-2.33c0.84-4.13,3.85-7.79,7.89-9.11c3.02-1.12,6.22-0.35,9.22,0.37c6.36,2.26,11.61,6.69,16.12,11.61
			C692.5,459.53,685.28,464.6,676.98,464.72z"/>
		<path class="st1" d="M744.55,462.71c-3.93,4.48-11.13,4.66-15.76,1.16c2.77-3.52,11.97-12.9,13.32-14.5
			c-1.78,1.19-11.95,9.49-15.46,12.17c-2.33-3.51-2.79-8.23-0.87-12.02c1.35-2.93,4.15-4.65,6.78-6.26c6.1-2.9,12.94-3.49,19.6-3.2
			C751.85,448.07,750.34,456.75,744.55,462.71z"/>
		<path class="st1" d="M687.33,507.54c-2.14-5.56,1.04-12.02,6.29-14.49c1.83,4.08,5.87,16.59,6.65,18.53
			c-0.23-2.13-2.85-14.99-3.6-19.34c4.19-0.43,8.58,1.35,11.05,4.81c1.97,2.55,2.19,5.83,2.39,8.91
			c-0.26,6.75-2.92,13.08-6.27,18.85C696.91,520.8,689.92,515.43,687.33,507.54z"/>
		<path class="st1" d="M596.88,292.88c-2.83,8.73-12.89,13.37-21.57,11.24c1.77-6.66,9.05-25.53,10-28.61
			c-1.79,2.77-11.11,20.69-14.44,26.62c-5.44-3.55-8.96-9.93-8.55-16.46c0.12-4.96,3.03-9.1,5.77-12.98
			c6.85-7.82,16.17-12.81,25.76-16.46C598.26,267.73,601.42,280.93,596.88,292.88z"/>
		<path class="st1" d="M706.38,402.53c-7.84,4.76-18.49,1.7-23.67-5.58c5.69-3.88,23.54-13.42,26.26-15.13
			c-3.17,0.93-21.93,8.41-28.32,10.72c-1.8-6.24-0.29-13.37,4.28-18.05c3.33-3.68,8.24-4.91,12.85-6.06
			c10.29-1.44,20.61,0.86,30.26,4.37C723.86,384.4,717.63,396.45,706.38,402.53z"/>
		<path class="st1" d="M742.43,423.09c-4.12,8.2-14.77,11.25-23.03,7.83c2.76-6.31,12.83-23.86,14.23-26.76
			c-2.2,2.47-14.13,18.76-18.32,24.12c-4.83-4.33-7.35-11.18-5.95-17.57c0.87-4.88,4.38-8.53,7.67-11.95
			c7.96-6.69,17.93-10.21,27.97-12.36C747.62,398.45,748.74,411.97,742.43,423.09z"/>
		<path class="st1" d="M727.13,507.11c-8.36-3.79-11.84-14.3-8.76-22.69c6.42,2.5,24.36,11.86,27.31,13.14
			c-2.55-2.09-19.32-13.36-24.84-17.33c4.13-5,10.87-7.79,17.31-6.65c4.92,0.67,8.7,4.03,12.25,7.19c7,7.68,10.92,17.5,13.48,27.44
			C751.97,511.3,738.5,512.96,727.13,507.11z"/>
		<path class="st1" d="M665.6,365.9c3.56,6.74,0.5,15.42-5.79,19.36c-2.94-4.91-9.97-20.17-11.26-22.52
			c0.61,2.67,5.9,18.6,7.5,24.01c-5.26,1.18-11.1-0.41-14.75-4.44c-2.89-2.94-3.66-7.07-4.39-10.95c-0.69-8.61,1.73-17.05,5.1-24.88
			C651.42,350.52,661.11,356.28,665.6,365.9z"/>
		<path class="st1" d="M469.27,510.32c0.42-9.17,8.89-16.3,17.82-16.55c0.06,6.89-1.97,27.02-2.07,30.24c1-3.15,5.24-22.9,6.87-29.5
			c6.18,1.98,11.27,7.21,12.6,13.61c1.2,4.81-0.51,9.57-2.13,14.04c-4.53,9.35-12.2,16.64-20.48,22.7
			C474.59,534.94,468.05,523.05,469.27,510.32z"/>
		<path class="st1" d="M461.83,391.32c6.73,6.24,17.77,5.39,24.31-0.71c-4.79-4.95-20.36-17.88-22.68-20.1
			c2.92,1.55,19.79,12.65,25.59,16.2c3.02-5.75,2.98-13.04-0.56-18.54c-2.52-4.27-7.08-6.46-11.36-8.52
			c-9.79-3.49-20.37-3.3-30.52-1.81C448.35,370.04,452.03,383.1,461.83,391.32z"/>
		<path class="st1" d="M547.94,341.78c4.16,3.86,10.99,3.33,15.03-0.44c-2.96-3.06-12.59-11.05-14.03-12.43
			c1.81,0.96,12.24,7.82,15.82,10.02c1.86-3.55,1.84-8.06-0.35-11.46c-1.56-2.64-4.38-4-7.03-5.27c-6.05-2.16-12.59-2.04-18.87-1.12
			C539.61,328.62,541.88,336.7,547.94,341.78z"/>
		<path class="st1" d="M563.64,438.79c3.05,4.78,9.8,5.99,14.66,3.37c-2.1-3.71-9.4-13.87-10.44-15.56
			c1.51,1.38,9.87,10.65,12.79,13.68c2.7-2.97,3.81-7.34,2.55-11.18c-0.84-2.95-3.23-4.97-5.47-6.87
			c-5.32-3.61-11.67-5.15-17.98-5.84C558.89,423.95,559.05,432.35,563.64,438.79z"/>
		<path class="st1" d="M658.14,460.9c-3.65-4.35-10.49-4.67-14.97-1.43c2.56,3.4,11.12,12.53,12.38,14.07
			c-1.67-1.17-11.18-9.28-14.46-11.9c-2.29,3.3-2.83,7.77-1.07,11.42c1.22,2.82,3.85,4.51,6.32,6.1c5.74,2.89,12.24,3.59,18.59,3.45
			C664.78,474.99,663.52,466.69,658.14,460.9z"/>
		<path class="st1" d="M540.79,424.61c-2.38,5.03-8.79,7.03-13.85,5.07c1.59-3.86,7.44-14.64,8.25-16.42
			c-1.3,1.53-8.3,11.57-10.76,14.87c-2.99-2.56-4.61-6.67-3.85-10.56c0.46-2.97,2.53-5.23,4.48-7.35
			c4.73-4.16,10.72-6.44,16.78-7.88C543.59,409.6,544.45,417.79,540.79,424.61z"/>
		<path class="st1" d="M624.68,405.09c-2.53,3.8-7.98,4.66-11.85,2.47c1.75-2.95,7.78-11,8.65-12.35
			c-1.23,1.09-8.12,8.41-10.51,10.8c-2.12-2.43-2.95-5.97-1.87-9.04c0.73-2.36,2.68-3.95,4.51-5.44c4.34-2.82,9.47-3.95,14.56-4.41
			C628.74,393.23,628.47,399.98,624.68,405.09z"/>
		<path class="st1" d="M452.23,449.39c9.08,1.33,15.34,10.47,14.69,19.39c-6.86-0.63-26.69-4.66-29.88-5.07
			c3.03,1.31,22.26,7.5,28.66,9.78c-2.59,5.95-8.29,10.49-14.8,11.18c-4.91,0.71-9.47-1.47-13.76-3.52
			c-8.85-5.44-15.34-13.8-20.54-22.65C427.2,452.23,439.69,446.91,452.23,449.39z"/>
		<path class="st0" d="M645.71,495.78c-14.73,3.28-30.13,5.19-44.86,0.62c1-7.89,3.11-15.56,5.98-22.95
			c3.65-6.31,7.05-13.03,12.86-17.6c5.52-4.73,25.61-5.48,25.61-5.48c4.69,0,9.46,0,14.23-0.12c-8.34-3.03-16.81-5.44-25.31-7.68
			c15.6-21,39.18-39.22,41.17-67.27c-6.43,11.04-12.99,22.45-23.41,30.29c-14.57,12.49-34.86,16.39-47.77,31.08
			c-0.17-10.54-0.54-21.04-0.71-31.54c0.62-8.3,4.4-21.79,8.26-33.57c3.69-11.5,7.43-21.37,8.42-23.45
			c-1.29,1.99-12.91,14.81-18.22,19.26c-4.81-24.28-21.08-45.44-42.99-56.81c7.8,11.91,16.06,23.7,20.75,37.27
			c6.02,14.61,7.8,30.38,10.58,45.77c1.25,6.76,0.08,14.94-0.25,21.79c-0.37,7.26-1.04,14.52-1.99,21.7
			c-1.78,13.24-5.89,26.19-10.37,38.72c-1.95,5.35-3.94,10.62-5.98,15.94c-1.04,2.7-6.22,11.74-5.4,14.36
			c-5.27-16.68-14.07-32.24-26.27-44.86c-13.11-13.2-23.7-29.17-29.26-47.06c-4.61-13.9-4.61-28.76-7.84-42.95
			c-6.97,16.23-6.64,34.57-3.03,51.58c4.27,17.8,16.85,32.08,22.08,49.55c-21.5,0.95-43.74,8.22-61.67,20.62
			c17.93-8.63,37.8-13.28,57.43-5.81c14.4,3.61,20.91,17.93,27.26,29.88c9.38,20.54,10.37,43.49,8.47,65.69
			c-3.65,13.32-4.32,27.43-8.22,40.71l-1.95,0.58l0.91,2.78c-0.29,0.83-0.58,1.7-0.91,2.53c0.5-0.21,1-0.37,1.54-0.54l1.12,3.49
			l17.14,15.89l73.66,17.14l-28.8-53.53l0,0c-2-3.71-3.49-7.67-4.44-11.77c-2.21-9.62-4.45-19.28-5.61-29.02
			c-1.33-11.33,0.33-22.91,5.27-33.16c2.28-4.81,5.1-9.3,9.09-12.95c13.4-13.9,33.2-17.18,50.42-24.07
			c6.97-2.82,13.65-8.51,19.59-12.99c5.6-4.19,11.41-8.34,16.14-13.53c1.29-1.41,2.49-2.86,3.69-4.4
			c7.59-9.96,12.82-22.37,12.82-34.82C701.9,464.29,675.3,485.12,645.71,495.78z"/>
	</g>
	<g>
		<g>
			<path class="st2" d="M114.66,795.66v-4.39l0.9-0.05c3.58-0.22,5.54-0.66,5.85-1.32c0.38-0.6,0.58-1.68,0.61-3.26l0.24-4.67v-42.5
				l-0.24-4.62c-0.06-2.2-0.47-3.46-1.22-3.78c-0.76-0.34-2.5-0.63-5.24-0.85l-0.9-0.05v-4.34h29.72v4.34l-0.9,0.05
				c-3.68,0.28-5.63,0.72-5.85,1.32c-0.41,0.6-0.61,1.7-0.61,3.3l-0.23,4.62v42.5l0.23,4.1c0.13,2.36,0.57,3.69,1.32,4.01
				c0.66,0.32,1.85,0.49,3.58,0.52l4.2,0.09h10.52l4.06-0.19c2.64-0.06,4.14-0.41,4.48-1.04c0.32-0.63,0.49-1.82,0.52-3.58
				l0.19-5.66v-2.03h9.29v17.45H114.66z"/>
			<path class="st2" d="M181.42,795.66v-4.39l0.9-0.05c3.56-0.22,5.49-0.66,5.8-1.32c0.38-0.63,0.58-1.71,0.61-3.26l0.24-4.67v-42.5
				l-0.24-4.62c-0.06-2.17-0.49-3.43-1.27-3.78c-0.76-0.38-2.47-0.66-5.14-0.85l-0.9-0.05v-4.34h29.67v4.34l-0.85,0.05
				c-3.65,0.28-5.6,0.72-5.85,1.32c-0.41,0.6-0.61,1.7-0.61,3.3l-0.24,4.62v42.5l0.24,4.67c0.06,2.2,0.5,3.47,1.32,3.82
				c0.82,0.32,2.53,0.56,5.14,0.75l0.85,0.05v4.39H181.42z"/>
			<path class="st2" d="M218.05,795.66v-4.39l0.9-0.05c3.55-0.22,5.49-0.66,5.8-1.32c0.38-0.63,0.58-1.71,0.61-3.26l0.23-4.67v-42.5
				l-0.23-4.62c-0.07-2.17-0.49-3.43-1.28-3.78c-0.75-0.38-2.47-0.66-5.14-0.85l-0.9-0.05v-4.34h35.28c6.64,0,11.68,1.32,15.14,3.96
				c3.46,2.61,5.19,6.4,5.19,11.37c0,5-2.01,9.19-6.04,12.55c-2.42,2.04-5.94,3.94-10.57,5.71c5.09,1.13,9.01,2.61,11.75,4.43
				c5.16,3.33,7.73,8.19,7.73,14.58c0,11.48-7.69,17.22-23.07,17.22H218.05z M239.56,757.55h5.61c4.37,0,7.8-1.24,10.28-3.73
				c2.48-2.48,3.73-5.91,3.73-10.28c0-8.71-4.66-13.07-13.96-13.07h-5.66V757.55z M239.56,762.22v19.81c0,4.21,0.66,6.7,1.98,7.46
				c1.13,0.63,3.13,0.94,5.99,0.94c9.43,0,14.15-4.32,14.15-12.97c0-4.59-1.53-8.29-4.57-11.08c-3.02-2.77-6.98-4.15-11.89-4.15
				H239.56z"/>
			<path class="st2" d="M284.02,795.66v-4.39l0.9-0.05c3.58-0.22,5.54-0.66,5.85-1.32c0.38-0.6,0.58-1.68,0.61-3.26l0.24-4.67v-42.5
				l-0.24-4.62c-0.06-2.2-0.47-3.46-1.22-3.78c-0.76-0.34-2.5-0.63-5.24-0.85l-0.9-0.05v-4.34h57.03v12.5h-8.16l-0.05-0.9
				l-0.05-1.23c-0.03-0.5-0.07-0.93-0.09-1.27c0-0.19,0-0.33,0-0.43c-0.03-1.79-0.3-2.86-0.8-3.21c-0.54-0.38-1.49-0.6-2.88-0.66
				l-3.21-0.19h-19.67v26.51h14.39l4.62-0.09c1.26-0.03,2.01-0.2,2.27-0.52c0.16-0.25,0.27-0.75,0.33-1.51v-0.23l-0.05-0.19
				c0.09-0.09,0.14-0.2,0.14-0.33c0-0.75,0.02-1.35,0.05-1.79l0.09-0.9h6.08v15.14h-6.08l-0.09-0.85c0-0.13-0.02-0.35-0.05-0.66
				c-0.03-0.5-0.05-0.88-0.05-1.13v-0.09c0-1.7-0.93-2.57-2.78-2.59l-4.44-0.19h-14.43v20.94l0.23,4.1c0.16,2.42,0.6,3.76,1.32,4.01
				c0.69,0.32,1.9,0.49,3.63,0.52l3.87,0.09h10.52l5.38-0.14c2.17,0,3.35-0.88,3.54-2.64l0.24-4.48l0.09-0.9h8.11v13.11H284.02z"/>
			<path class="st2" d="M348.86,795.66v-4.39l0.9-0.05c3.55-0.22,5.49-0.66,5.8-1.32c0.38-0.63,0.58-1.71,0.61-3.26l0.23-4.67v-42.5
				l-0.23-4.62c-0.07-2.17-0.49-3.43-1.28-3.78c-0.75-0.38-2.47-0.66-5.14-0.85l-0.9-0.05v-4.34h20.33l4.39-0.09l4.25-0.14l4.2-0.09
				c5.72-0.12,10.47,0.9,14.24,3.06c4.97,2.83,7.46,7.72,7.46,14.67c0,5.85-1.65,10.6-4.96,14.24c-1.95,2.11-4.78,3.98-8.49,5.61
				l13.63,19.01l3.72,4.81c1.98,2.58,3.88,3.97,5.71,4.15l2.27,0.14l0.9,0.05v4.39h-20.8l-19.34-30.57h-5.99v16.89l0.24,4.67
				c0.06,2.17,0.45,3.45,1.18,3.82c0.69,0.35,2.07,0.6,4.15,0.75l0.85,0.05v4.39H348.86z M370.36,760.42h2.59
				c4.94,0,8.85-1.46,11.75-4.39c2.89-2.93,4.34-6.9,4.34-11.94c0-9.09-4.46-13.63-13.4-13.63h-5.28V760.42z"/>
			<path class="st2" d="M429.73,795.66v-4.39l0.85-0.05l3.21-0.23c2.36-0.19,3.69-0.91,4.01-2.17c0.44-1.89,0.66-4.17,0.66-6.84
				v-51.51h-8.54c-3.37,0-5.32,0.31-5.85,0.94c-0.6,0.56-0.9,1.62-0.9,3.16v0.61c-0.03,1.58-0.09,3-0.19,4.29l-0.05,0.9h-7.55
				v-14.53h60.66v14.53h-7.59l-0.05-1.46l-0.19-4.29c-0.03-2.11-0.56-3.32-1.6-3.63c-0.97-0.34-2.69-0.52-5.14-0.52h-8.49v51.51
				l0.28,4.67c0.16,2.11,0.58,3.33,1.27,3.68c0.63,0.35,1.67,0.57,3.11,0.66l3.21,0.23l0.85,0.05v4.39H429.73z"/>
			<path class="st2" d="M501.07,795.66v-4.39l0.9-0.05c3.58-0.22,5.53-0.66,5.85-1.32c0.38-0.63,0.58-1.71,0.61-3.26l0.24-4.67
				v-16.51l-15.85-25.57l-1.32-2.12l-0.99-1.6c-0.56-0.91-0.91-1.49-1.04-1.74c-1.35-2.55-2.91-3.9-4.67-4.06l-2.5-0.14l-0.95-0.05
				v-4.34h30.28v4.34h-0.76l-2.36,0.05c-2.14,0.03-3.21,0.55-3.21,1.55c0,1.07,1.34,3.79,4.01,8.16l11.84,19.43l12.12-19.43
				c2.67-4.28,4.01-6.94,4.01-7.98c0-1.19-1.53-1.79-4.57-1.79h-1.04v-4.34h19.2v4.34l-0.85,0.05l-2.03,0.19
				c-1.82,0.19-3.32,1.23-4.48,3.11l-4.1,6.37l-16.23,25.47v16.6l0.24,4.67c0.06,2.2,0.5,3.47,1.32,3.82
				c0.81,0.35,2.53,0.6,5.14,0.75l0.85,0.05v4.39H501.07z"/>
			<path class="st2" d="M581.83,794.81v-14.58h7.55l0.09,1.13l0.14,3.06c0.09,2.52,1.26,4.55,3.49,6.08
				c2.14,1.51,4.89,2.27,8.25,2.27c3.78,0,6.83-1.16,9.15-3.49c2.32-2.33,3.49-5.35,3.49-9.06c0-2.89-0.69-5.23-2.07-7.03
				c-1.45-1.86-4.06-3.81-7.83-5.85l-4.67-2.55c-11.67-6.35-17.5-13.51-17.5-21.46c0-5.69,2.11-10.32,6.32-13.87
				c4.21-3.58,9.81-5.38,16.79-5.38c5.25,0,11.51,1.02,18.78,3.07v14.06h-7.59l-0.05-0.85l-0.14-3.16c-0.25-5.66-3.4-8.49-9.43-8.49
				c-3.3,0-6.01,1.06-8.11,3.16c-2.11,2.08-3.16,4.75-3.16,8.02c0,2.39,0.69,4.42,2.07,6.08c1.32,1.58,3.92,3.49,7.78,5.76
				l4.72,2.73c6.92,4.03,11.62,7.55,14.1,10.57c2.55,3.15,3.82,6.95,3.82,11.42c0,6.32-2.37,11.38-7.12,15.19
				c-4.78,3.84-11.17,5.76-19.15,5.76C595.98,797.41,589.41,796.54,581.83,794.81z"/>
			<path class="st2" d="M634.4,795.66v-4.39l0.9-0.05c3.58-0.22,5.54-0.66,5.85-1.32c0.38-0.6,0.58-1.68,0.61-3.26l0.24-4.67v-42.5
				l-0.24-4.62c-0.06-2.2-0.47-3.46-1.22-3.78c-0.76-0.34-2.5-0.63-5.24-0.85l-0.9-0.05v-4.34h57.03v12.5h-8.16l-0.05-0.9
				l-0.04-1.23c-0.03-0.5-0.07-0.93-0.09-1.27c0-0.19,0-0.33,0-0.43c-0.03-1.79-0.3-2.86-0.8-3.21c-0.54-0.38-1.49-0.6-2.88-0.66
				l-3.21-0.19h-19.67v26.51h14.39l4.62-0.09c1.26-0.03,2.01-0.2,2.27-0.52c0.16-0.25,0.27-0.75,0.33-1.51v-0.23l-0.04-0.19
				c0.09-0.09,0.14-0.2,0.14-0.33c0-0.75,0.02-1.35,0.05-1.79l0.09-0.9h6.08v15.14h-6.08l-0.09-0.85c0-0.13-0.02-0.35-0.05-0.66
				c-0.03-0.5-0.04-0.88-0.04-1.13v-0.09c0-1.7-0.93-2.57-2.78-2.59l-4.44-0.19h-14.43v20.94l0.23,4.1c0.16,2.42,0.6,3.76,1.32,4.01
				c0.69,0.32,1.9,0.49,3.63,0.52l3.87,0.09h10.52l5.38-0.14c2.17,0,3.35-0.88,3.54-2.64l0.24-4.48l0.09-0.9h8.11v13.11H634.4z"/>
			<path class="st2" d="M762.87,786.37v6.6c-7.55,2.95-15.49,4.44-23.82,4.44c-12.23,0-21.68-3.19-28.35-9.58
				c-6.67-6.35-10-15.41-10-27.17c0-11.79,3.24-20.83,9.72-27.12c6.48-6.29,15.85-9.44,28.11-9.44c7.17,0,14.87,1.02,23.12,3.07
				v14.39h-8.16v-0.9l-0.14-2.74c-0.16-3.27-1.64-5.63-4.44-7.07c-2.61-1.42-5.93-2.12-9.95-2.12c-8.55,0-14.62,3.15-18.21,9.44
				c-3.05,5.38-4.57,12.73-4.57,22.08c0,20.88,8.6,31.32,25.8,31.32C748.1,791.55,755.07,789.83,762.87,786.37z"/>
			<path class="st2" d="M768.83,730.47v-4.62h29.67v4.34l-0.85,0.05c-3.65,0.28-5.59,0.72-5.8,1.32c-0.41,0.6-0.61,1.7-0.61,3.3
				l-0.24,4.62v30.19c0,8.58,1.08,14.59,3.26,18.02c2.23,3.43,6.07,5.14,11.51,5.14c5.76,0,9.96-1.89,12.59-5.66
				c2.64-3.77,3.97-9.73,3.97-17.88v-29.81l-0.24-4.62c-0.07-2.2-0.47-3.46-1.23-3.78c-0.72-0.34-2.47-0.63-5.23-0.85l-0.85-0.05
				v-4.34h21.98v4.34l-0.9,0.05c-3.55,0.25-5.44,0.69-5.66,1.32c-0.41,0.6-0.61,1.7-0.61,3.3l-0.28,4.62v28.68
				c0,9.97-2.06,17.33-6.18,22.08c-4.12,4.78-10.55,7.17-19.29,7.17c-18.3,0-27.46-9.44-27.46-28.3v-29.29l-0.23-4.67
				c-0.07-2.17-0.54-3.45-1.42-3.82c-0.85-0.38-2.53-0.64-5.05-0.8L768.83,730.47z"/>
			<path class="st2" d="M840.7,795.66v-4.39l0.9-0.05c3.55-0.22,5.49-0.66,5.8-1.32c0.38-0.63,0.58-1.71,0.61-3.26l0.23-4.67v-42.5
				l-0.23-4.62c-0.07-2.17-0.49-3.43-1.28-3.78c-0.75-0.38-2.47-0.66-5.14-0.85l-0.9-0.05v-4.34h20.33l4.39-0.09l4.25-0.14l4.2-0.09
				c5.72-0.12,10.47,0.9,14.24,3.06c4.97,2.83,7.46,7.72,7.46,14.67c0,5.85-1.65,10.6-4.96,14.24c-1.95,2.11-4.78,3.98-8.49,5.61
				l13.63,19.01l3.72,4.81c1.98,2.58,3.88,3.97,5.71,4.15l2.27,0.14l0.9,0.05v4.39h-20.8l-19.34-30.57h-5.99v16.89l0.24,4.67
				c0.06,2.17,0.45,3.45,1.18,3.82c0.69,0.35,2.07,0.6,4.15,0.75l0.85,0.05v4.39H840.7z M862.21,760.42h2.59
				c4.94,0,8.85-1.46,11.75-4.39c2.89-2.93,4.34-6.9,4.34-11.94c0-9.09-4.46-13.63-13.4-13.63h-5.28V760.42z"/>
			<path class="st2" d="M913.36,795.66v-4.39l0.9-0.05c3.56-0.22,5.49-0.66,5.8-1.32c0.38-0.63,0.58-1.71,0.61-3.26l0.24-4.67v-42.5
				l-0.24-4.62c-0.06-2.17-0.49-3.43-1.27-3.78c-0.76-0.38-2.47-0.66-5.14-0.85l-0.9-0.05v-4.34h29.67v4.34l-0.85,0.05
				c-3.65,0.28-5.6,0.72-5.85,1.32c-0.41,0.6-0.61,1.7-0.61,3.3l-0.24,4.62v42.5l0.24,4.67c0.06,2.2,0.5,3.47,1.32,3.82
				c0.82,0.32,2.53,0.56,5.14,0.75l0.85,0.05v4.39H913.36z"/>
			<path class="st2" d="M964.19,795.66v-4.39l0.85-0.05l3.21-0.23c2.36-0.19,3.69-0.91,4.01-2.17c0.44-1.89,0.66-4.17,0.66-6.84
				v-51.51h-8.54c-3.37,0-5.32,0.31-5.85,0.94c-0.6,0.56-0.9,1.62-0.9,3.16v0.61c-0.03,1.58-0.09,3-0.19,4.29l-0.04,0.9h-7.55
				v-14.53h60.66v14.53h-7.59l-0.05-1.46l-0.19-4.29c-0.03-2.11-0.56-3.32-1.6-3.63c-0.97-0.34-2.69-0.52-5.14-0.52h-8.49v51.51
				l0.28,4.67c0.16,2.11,0.58,3.33,1.27,3.68c0.63,0.35,1.67,0.57,3.11,0.66l3.21,0.23l0.85,0.05v4.39H964.19z"/>
			<path class="st2" d="M1035.53,795.66v-4.39l0.9-0.05c3.58-0.22,5.53-0.66,5.85-1.32c0.38-0.63,0.58-1.71,0.61-3.26l0.24-4.67
				v-16.51l-15.85-25.57l-1.32-2.12l-0.99-1.6c-0.56-0.91-0.91-1.49-1.04-1.74c-1.35-2.55-2.91-3.9-4.67-4.06l-2.5-0.14l-0.95-0.05
				v-4.34h30.28v4.34h-0.76l-2.36,0.05c-2.14,0.03-3.21,0.55-3.21,1.55c0,1.07,1.34,3.79,4.01,8.16l11.84,19.43l12.12-19.43
				c2.67-4.28,4.01-6.94,4.01-7.98c0-1.19-1.53-1.79-4.57-1.79h-1.04v-4.34h19.2v4.34l-0.85,0.05l-2.03,0.19
				c-1.83,0.19-3.32,1.23-4.48,3.11l-4.1,6.37l-16.23,25.47v16.6l0.24,4.67c0.06,2.2,0.5,3.47,1.32,3.82
				c0.81,0.35,2.53,0.6,5.14,0.75l0.85,0.05v4.39H1035.53z"/>
		</g>
		<g>
			<g>
				<g>
					<path class="st0" d="M410.47,816.22h-14.76v8.7h13.19v2.51h-13.19v10.61h-2.75v-24.36h17.51V816.22z"/>
				</g>
				<g>
					<path class="st0" d="M457.63,830.64c-0.6,1.52-1.45,2.86-2.54,4.02c-1.09,1.16-2.4,2.08-3.93,2.77
						c-1.53,0.69-3.23,1.03-5.08,1.03s-3.54-0.34-5.06-1.01c-1.52-0.67-2.83-1.58-3.92-2.73c-1.09-1.15-1.93-2.48-2.52-4
						c-0.59-1.52-0.89-3.13-0.89-4.82c0-1.69,0.3-3.3,0.9-4.82c0.6-1.52,1.45-2.86,2.54-4.02c1.09-1.16,2.4-2.08,3.93-2.77
						c1.53-0.68,3.23-1.03,5.08-1.03s3.54,0.34,5.06,1.01c1.52,0.67,2.82,1.58,3.91,2.73c1.09,1.15,1.93,2.48,2.52,4
						c0.59,1.52,0.89,3.13,0.89,4.82C458.53,827.52,458.23,829.12,457.63,830.64z M454.97,821.96c-0.48-1.23-1.14-2.3-2-3.2
						c-0.86-0.91-1.87-1.62-3.05-2.16c-1.17-0.53-2.45-0.8-3.85-0.8c-1.39,0-2.67,0.26-3.85,0.78c-1.17,0.52-2.18,1.23-3.01,2.14
						c-0.83,0.9-1.49,1.97-1.97,3.18c-0.48,1.22-0.71,2.52-0.71,3.91c0,1.39,0.24,2.7,0.71,3.93c0.47,1.23,1.14,2.3,2,3.2
						c0.86,0.9,1.87,1.62,3.05,2.16c1.17,0.53,2.45,0.8,3.85,0.8c1.39,0,2.67-0.26,3.85-0.78c1.17-0.52,2.18-1.24,3.01-2.14
						c0.83-0.9,1.49-1.97,1.97-3.18c0.47-1.22,0.71-2.52,0.71-3.92C455.68,824.5,455.44,823.19,454.97,821.96z"/>
				</g>
				<g>
					<path class="st0" d="M503.75,827.63c0,1.79-0.24,3.35-0.73,4.7c-0.49,1.34-1.18,2.47-2.07,3.37c-0.89,0.91-1.96,1.58-3.2,2.04
						c-1.24,0.45-2.63,0.68-4.16,0.68c-1.51,0-2.88-0.23-4.12-0.68c-1.24-0.45-2.31-1.12-3.2-2.02c-0.89-0.89-1.58-2-2.07-3.32
						c-0.49-1.32-0.73-2.84-0.73-4.56v-14.17h2.75v13.99c0,2.64,0.66,4.68,1.97,6.09c1.31,1.42,3.14,2.12,5.48,2.12
						c2.25,0,4.04-0.67,5.36-2.02c1.32-1.34,1.99-3.35,1.99-6.02v-14.17h2.75V827.63z"/>
				</g>
				<g>
					<path class="st0" d="M547.67,813.68h2.68v24.36h-2.19l-15.73-19.98v19.98h-2.68v-24.36h2.57l15.35,19.52V813.68z"/>
				</g>
				<g>
					<path class="st0" d="M597.2,830.64c-0.63,1.5-1.51,2.79-2.66,3.88c-1.15,1.09-2.52,1.95-4.11,2.58
						c-1.59,0.63-3.34,0.94-5.24,0.94h-8.46v-24.36h8.46c1.9,0,3.65,0.31,5.24,0.92c1.59,0.62,2.96,1.47,4.11,2.56
						c1.15,1.09,2.04,2.38,2.66,3.86c0.63,1.49,0.94,3.09,0.94,4.8C598.14,827.54,597.83,829.15,597.2,830.64z M594.57,822.1
						c-0.47-1.18-1.15-2.21-2.02-3.08c-0.87-0.87-1.93-1.55-3.18-2.05c-1.25-0.5-2.65-0.75-4.18-0.75h-5.71v19.28h5.71
						c1.53,0,2.92-0.24,4.18-0.73c1.25-0.49,2.31-1.16,3.18-2.04c0.87-0.87,1.54-1.88,2.02-3.05c0.48-1.16,0.71-2.43,0.71-3.79
						C595.29,824.55,595.05,823.28,594.57,822.1z"/>
				</g>
				<g>
					<path class="st0" d="M644.53,838.04h-2.96l-2.85-6.44h-13.26l-2.89,6.44h-2.82l11.1-24.54h2.57L644.53,838.04z M632.11,816.74
						l-5.57,12.43h11.1L632.11,816.74z"/>
				</g>
				<g>
					<path class="st0" d="M674.88,838.04h-2.75v-21.82h-8.18v-2.54h19.11v2.54h-8.18V838.04z"/>
				</g>
				<g>
					<path class="st0" d="M710.73,813.68v24.36h-2.75v-24.36H710.73z"/>
				</g>
				<g>
					<path class="st0" d="M760.22,830.64c-0.6,1.52-1.45,2.86-2.54,4.02c-1.09,1.16-2.4,2.08-3.93,2.77
						c-1.53,0.69-3.23,1.03-5.08,1.03c-1.86,0-3.54-0.34-5.06-1.01c-1.52-0.67-2.83-1.58-3.92-2.73c-1.09-1.15-1.93-2.48-2.52-4
						c-0.59-1.52-0.89-3.13-0.89-4.82c0-1.69,0.3-3.3,0.9-4.82c0.6-1.52,1.45-2.86,2.54-4.02c1.09-1.16,2.4-2.08,3.93-2.77
						c1.53-0.68,3.23-1.03,5.08-1.03s3.54,0.34,5.06,1.01c1.52,0.67,2.82,1.58,3.91,2.73c1.09,1.15,1.93,2.48,2.52,4
						c0.59,1.52,0.89,3.13,0.89,4.82C761.13,827.52,760.83,829.12,760.22,830.64z M757.56,821.96c-0.48-1.23-1.14-2.3-2-3.2
						c-0.86-0.91-1.87-1.62-3.05-2.16c-1.17-0.53-2.45-0.8-3.85-0.8c-1.39,0-2.67,0.26-3.85,0.78c-1.17,0.52-2.18,1.23-3.01,2.14
						c-0.83,0.9-1.49,1.97-1.97,3.18c-0.48,1.22-0.71,2.52-0.71,3.91c0,1.39,0.24,2.7,0.71,3.93c0.47,1.23,1.14,2.3,2,3.2
						c0.86,0.9,1.87,1.62,3.05,2.16c1.17,0.53,2.45,0.8,3.85,0.8c1.39,0,2.67-0.26,3.85-0.78c1.17-0.52,2.18-1.24,3.01-2.14
						c0.83-0.9,1.49-1.97,1.97-3.18c0.47-1.22,0.71-2.52,0.71-3.92C758.27,824.5,758.04,823.19,757.56,821.96z"/>
				</g>
				<g>
					<path class="st0" d="M804.36,813.68h2.68v24.36h-2.19l-15.73-19.98v19.98h-2.68v-24.36h2.57l15.35,19.52V813.68z"/>
				</g>
			</g>
		</g>
		<g>
			<g>
				<rect x="836.24" y="824.12" class="st0" width="249.11" height="3.49"/>
			</g>
		</g>
		<g>
			<rect x="114.66" y="824.12" class="st0" width="249.11" height="3.49"/>
		</g>
	</g>
</g>
</svg>
