<?xml version="1.0" encoding="UTF-8" standalone="no"?>
<!DOCTYPE svg PUBLIC "-//W3C//DTD SVG 1.1//EN" "http://www.w3.org/Graphics/SVG/1.1/DTD/svg11.dtd">
<svg width="100%" height="100%" viewBox="0 0 1022 157" version="1.1" xmlns="http://www.w3.org/2000/svg" xmlns:xlink="http://www.w3.org/1999/xlink" xml:space="preserve" xmlns:serif="http://www.serif.com/" style="fill-rule:evenodd;clip-rule:evenodd;stroke-linejoin:round;stroke-miterlimit:2;">
    <g transform="matrix(1,0,0,1,-23.9407,-171.991)">
        <g transform="matrix(1,0,0,1,-1200,0)">
            <g transform="matrix(0.290738,0,0,0.290738,1133.52,125.024)">
                <g>
                    <g>
                        <path d="M401.07,626.66C440.73,615.34 484.43,610.18 525.38,617.47C566.83,624.85 604.94,645.35 645.73,655.37C698.03,668.21 752.23,673.41 805.95,675.19C824.09,675.79 842.24,676.16 860.39,676.64C866.67,676.81 872.95,677.08 879.24,677.27C881.8,677.34 885.56,677.58 889,678.09C888.39,678.87 792.97,695.77 744.39,694.98C716.6,694.52 688.91,692.16 661.46,688.05C606.68,679.84 555.17,657.89 500.75,648.07C473.27,643.11 445.31,641.56 417.63,645.74C394.63,649.21 371.94,654.84 349.58,661.18C336.64,664.85 323.73,668.72 311.01,673.11C318.67,664.31 362.33,637.72 401.07,626.66Z" style="fill:rgb(55,17,10);fill-rule:nonzero;"/>
                    </g>
                    <g>
                        <path d="M336.5,678.02C361.54,664.69 391.16,655.22 442.75,653.42C462.33,652.74 481.99,653.83 501.17,657.78C546.78,667.17 581.68,683.16 602.02,698.17C530.85,669.3 441.78,663.44 336.5,678.02Z" style="fill:rgb(75,175,0);fill-rule:nonzero;"/>
                    </g>
                </g>
                <path d="M845.36,312.27C818.09,260.59 774.33,217.8 722.08,191.66C671.14,165.72 612.34,156.64 555.78,164.02C514.26,170.29 472.94,184.48 438.75,209.11C429.58,213.85 421.41,220.15 413.58,226.82C384.24,251.68 358.58,282.04 342.41,317.09C318.2,360.14 309.72,410.88 311.17,459.89C315.43,414.68 329.81,370.53 353.79,331.9C377.54,293.3 411.2,261.18 449.94,237.82C489.47,213.7 535.16,201.38 581.13,198.03C622.45,196.78 664.22,203.37 702.45,219.31C758.81,242.35 807.17,284.1 838.36,336.34C860.84,373.35 873.63,415.6 878,458.57C880.49,408.05 869.17,356.91 845.36,312.27Z" style="fill:rgb(75,175,0);fill-rule:nonzero;"/>
                <path d="M421.57,493.83C430.65,486.12 444.93,487.85 453.07,496.13C446.57,502.27 425.65,518.16 422.51,520.92C426.38,519.08 448.9,505.64 456.62,501.36C460.2,508.99 459.74,518.44 454.83,525.37C451.32,530.77 445.28,533.35 439.6,535.77C426.7,539.74 413,538.89 399.91,536.38C402.89,520.67 408.4,503.93 421.57,493.83Z" style="fill:rgb(75,175,0);fill-rule:nonzero;"/>
                <path d="M529.39,343.09C528.46,354.97 517.17,363.87 505.56,363.81C505.78,354.87 509.26,328.83 509.52,324.66C508.09,328.7 501.76,354.15 499.36,362.64C491.42,359.81 485.04,352.82 483.58,344.45C482.23,338.15 484.65,332.05 486.93,326.32C493.21,314.37 503.46,305.24 514.47,297.73C523.52,310.92 531.5,326.63 529.39,343.09Z" style="fill:rgb(75,175,0);fill-rule:nonzero;"/>
                <path d="M548.32,255.95C556.76,264.36 556.2,278.73 548.63,287.53C541.97,281.56 524.41,262.02 521.41,259.12C523.56,262.83 538.81,284.16 543.72,291.5C536.41,295.7 526.95,296.02 519.64,291.7C513.97,288.64 510.9,282.84 508.02,277.38C503,264.85 502.71,251.12 504.14,237.88C520.03,239.54 537.17,243.66 548.32,255.95Z" style="fill:rgb(75,175,0);fill-rule:nonzero;"/>
                <path d="M653.34,328.76C649.08,339.28 636.25,344.12 625.73,340.73C628.5,332.67 639.16,310.02 640.6,306.3C638.14,309.56 625.06,330.86 620.43,337.88C614.04,333.02 610.25,324.83 611.34,316.81C611.92,310.7 615.88,305.85 619.61,301.3C628.75,292.26 640.7,286.92 652.86,283.26C657.27,297.84 660,314.41 653.34,328.76Z" style="fill:rgb(75,175,0);fill-rule:nonzero;"/>
                <path d="M707.71,343.89C705.94,355.11 694.55,362.72 683.53,361.8C684.4,353.32 689.65,328.84 690.21,324.9C688.55,328.64 680.64,352.34 677.72,360.23C670.39,356.95 664.85,349.83 664.09,341.77C663.27,335.69 666.03,330.07 668.63,324.79C675.48,313.91 685.91,306 696.92,299.68C704.53,312.88 710.95,328.4 707.71,343.89Z" style="fill:rgb(75,175,0);fill-rule:nonzero;"/>
                <path d="M484.51,409.51C489.07,411.92 490.67,417.93 488.65,422.53C485.14,420.91 475.39,415.06 473.78,414.24C475.14,415.5 484.16,422.38 487.12,424.79C484.63,427.46 480.76,428.79 477.19,427.93C474.46,427.39 472.45,425.38 470.57,423.49C466.9,418.95 465.04,413.31 463.94,407.65C470.73,406.32 478.34,405.84 484.51,409.51Z" style="fill:rgb(75,175,0);fill-rule:nonzero;"/>
                <path d="M541.96,396.34C535.23,402.58 524.19,401.73 517.65,395.63C522.44,390.68 538.01,377.75 540.33,375.53C537.41,377.08 520.54,388.18 514.74,391.73C511.72,385.98 511.76,378.69 515.3,373.19C517.82,368.92 522.38,366.73 526.66,364.67C536.45,361.18 547.03,361.37 557.18,362.86C555.44,375.06 551.76,388.12 541.96,396.34Z" style="fill:rgb(75,175,0);fill-rule:nonzero;"/>
                <path d="M681.02,434.14C677.51,438.96 670.36,439.79 665.43,436.72C667.87,432.97 676.18,422.79 677.39,421.08C675.72,422.43 666.35,431.61 663.09,434.6C660.45,431.31 659.57,426.66 661.14,422.71C662.22,419.67 664.85,417.71 667.33,415.86C673.14,412.42 679.9,411.22 686.56,410.9C686.96,418.9 686.24,427.69 681.02,434.14Z" style="fill:rgb(75,175,0);fill-rule:nonzero;"/>
                <path d="M676.98,464.72C671.03,465.11 665.82,460.14 665.02,454.39C669.46,453.86 682.61,453.74 684.69,453.57C682.59,453.15 669.53,451.82 665.15,451.24C665.99,447.11 669,443.45 673.04,442.13C676.06,441.01 679.26,441.78 682.26,442.5C688.62,444.76 693.87,449.19 698.38,454.11C692.5,459.53 685.28,464.6 676.98,464.72Z" style="fill:rgb(75,175,0);fill-rule:nonzero;"/>
                <path d="M744.55,462.71C740.62,467.19 733.42,467.37 728.79,463.87C731.56,460.35 740.76,450.97 742.11,449.37C740.33,450.56 730.16,458.86 726.65,461.54C724.32,458.03 723.86,453.31 725.78,449.52C727.13,446.59 729.93,444.87 732.56,443.26C738.66,440.36 745.5,439.77 752.16,440.06C751.85,448.07 750.34,456.75 744.55,462.71Z" style="fill:rgb(75,175,0);fill-rule:nonzero;"/>
                <path d="M687.33,507.54C685.19,501.98 688.37,495.52 693.62,493.05C695.45,497.13 699.49,509.64 700.27,511.58C700.04,509.45 697.42,496.59 696.67,492.24C700.86,491.81 705.25,493.59 707.72,497.05C709.69,499.6 709.91,502.88 710.11,505.96C709.85,512.71 707.19,519.04 703.84,524.81C696.91,520.8 689.92,515.43 687.33,507.54Z" style="fill:rgb(75,175,0);fill-rule:nonzero;"/>
                <path d="M596.88,292.88C594.05,301.61 583.99,306.25 575.31,304.12C577.08,297.46 584.36,278.59 585.31,275.51C583.52,278.28 574.2,296.2 570.87,302.13C565.43,298.58 561.91,292.2 562.32,285.67C562.44,280.71 565.35,276.57 568.09,272.69C574.94,264.87 584.26,259.88 593.85,256.23C598.26,267.73 601.42,280.93 596.88,292.88Z" style="fill:rgb(75,175,0);fill-rule:nonzero;"/>
                <path d="M706.38,402.53C698.54,407.29 687.89,404.23 682.71,396.95C688.4,393.07 706.25,383.53 708.97,381.82C705.8,382.75 687.04,390.23 680.65,392.54C678.85,386.3 680.36,379.17 684.93,374.49C688.26,370.81 693.17,369.58 697.78,368.43C708.07,366.99 718.39,369.29 728.04,372.8C723.86,384.4 717.63,396.45 706.38,402.53Z" style="fill:rgb(75,175,0);fill-rule:nonzero;"/>
                <path d="M742.43,423.09C738.31,431.29 727.66,434.34 719.4,430.92C722.16,424.61 732.23,407.06 733.63,404.16C731.43,406.63 719.5,422.92 715.31,428.28C710.48,423.95 707.96,417.1 709.36,410.71C710.23,405.83 713.74,402.18 717.03,398.76C724.99,392.07 734.96,388.55 745,386.4C747.62,398.45 748.74,411.97 742.43,423.09Z" style="fill:rgb(75,175,0);fill-rule:nonzero;"/>
                <path d="M727.13,507.11C718.77,503.32 715.29,492.81 718.37,484.42C724.79,486.92 742.73,496.28 745.68,497.56C743.13,495.47 726.36,484.2 720.84,480.23C724.97,475.23 731.71,472.44 738.15,473.58C743.07,474.25 746.85,477.61 750.4,480.77C757.4,488.45 761.32,498.27 763.88,508.21C751.97,511.3 738.5,512.96 727.13,507.11Z" style="fill:rgb(75,175,0);fill-rule:nonzero;"/>
                <path d="M665.6,365.9C669.16,372.64 666.1,381.32 659.81,385.26C656.87,380.35 649.84,365.09 648.55,362.74C649.16,365.41 654.45,381.34 656.05,386.75C650.79,387.93 644.95,386.34 641.3,382.31C638.41,379.37 637.64,375.24 636.91,371.36C636.22,362.75 638.64,354.31 642.01,346.48C651.42,350.52 661.11,356.28 665.6,365.9Z" style="fill:rgb(75,175,0);fill-rule:nonzero;"/>
                <path d="M469.27,510.32C469.69,501.15 478.16,494.02 487.09,493.77C487.15,500.66 485.12,520.79 485.02,524.01C486.02,520.86 490.26,501.11 491.89,494.51C498.07,496.49 503.16,501.72 504.49,508.12C505.69,512.93 503.98,517.69 502.36,522.16C497.83,531.51 490.16,538.8 481.88,544.86C474.59,534.94 468.05,523.05 469.27,510.32Z" style="fill:rgb(75,175,0);fill-rule:nonzero;"/>
                <path d="M461.83,391.32C468.56,397.56 479.6,396.71 486.14,390.61C481.35,385.66 465.78,372.73 463.46,370.51C466.38,372.06 483.25,383.16 489.05,386.71C492.07,380.96 492.03,373.67 488.49,368.17C485.97,363.9 481.41,361.71 477.13,359.65C467.34,356.16 456.76,356.35 446.61,357.84C448.35,370.04 452.03,383.1 461.83,391.32Z" style="fill:rgb(75,175,0);fill-rule:nonzero;"/>
                <path d="M547.94,341.78C552.1,345.64 558.93,345.11 562.97,341.34C560.01,338.28 550.38,330.29 548.94,328.91C550.75,329.87 561.18,336.73 564.76,338.93C566.62,335.38 566.6,330.87 564.41,327.47C562.85,324.83 560.03,323.47 557.38,322.2C551.33,320.04 544.79,320.16 538.51,321.08C539.61,328.62 541.88,336.7 547.94,341.78Z" style="fill:rgb(75,175,0);fill-rule:nonzero;"/>
                <path d="M563.64,438.79C566.69,443.57 573.44,444.78 578.3,442.16C576.2,438.45 568.9,428.29 567.86,426.6C569.37,427.98 577.73,437.25 580.65,440.28C583.35,437.31 584.46,432.94 583.2,429.1C582.36,426.15 579.97,424.13 577.73,422.23C572.41,418.62 566.06,417.08 559.75,416.39C558.89,423.95 559.05,432.35 563.64,438.79Z" style="fill:rgb(75,175,0);fill-rule:nonzero;"/>
                <path d="M658.14,460.9C654.49,456.55 647.65,456.23 643.17,459.47C645.73,462.87 654.29,472 655.55,473.54C653.88,472.37 644.37,464.26 641.09,461.64C638.8,464.94 638.26,469.41 640.02,473.06C641.24,475.88 643.87,477.57 646.34,479.16C652.08,482.05 658.58,482.75 664.93,482.61C664.78,474.99 663.52,466.69 658.14,460.9Z" style="fill:rgb(75,175,0);fill-rule:nonzero;"/>
                <path d="M540.79,424.61C538.41,429.64 532,431.64 526.94,429.68C528.53,425.82 534.38,415.04 535.19,413.26C533.89,414.79 526.89,424.83 524.43,428.13C521.44,425.57 519.82,421.46 520.58,417.57C521.04,414.6 523.11,412.34 525.06,410.22C529.79,406.06 535.78,403.78 541.84,402.34C543.59,409.6 544.45,417.79 540.79,424.61Z" style="fill:rgb(75,175,0);fill-rule:nonzero;"/>
                <path d="M624.68,405.09C622.15,408.89 616.7,409.75 612.83,407.56C614.58,404.61 620.61,396.56 621.48,395.21C620.25,396.3 613.36,403.62 610.97,406.01C608.85,403.58 608.02,400.04 609.1,396.97C609.83,394.61 611.78,393.02 613.61,391.53C617.95,388.71 623.08,387.58 628.17,387.12C628.74,393.23 628.47,399.98 624.68,405.09Z" style="fill:rgb(75,175,0);fill-rule:nonzero;"/>
                <path d="M452.23,449.39C461.31,450.72 467.57,459.86 466.92,468.78C460.06,468.15 440.23,464.12 437.04,463.71C440.07,465.02 459.3,471.21 465.7,473.49C463.11,479.44 457.41,483.98 450.9,484.67C445.99,485.38 441.43,483.2 437.14,481.15C428.29,475.71 421.8,467.35 416.6,458.5C427.2,452.23 439.69,446.91 452.23,449.39Z" style="fill:rgb(75,175,0);fill-rule:nonzero;"/>
                <path d="M645.71,495.78C630.98,499.06 615.58,500.97 600.85,496.4C601.85,488.51 603.96,480.84 606.83,473.45C610.48,467.14 613.88,460.42 619.69,455.85C625.21,451.12 645.3,450.37 645.3,450.37C649.99,450.37 654.76,450.37 659.53,450.25C651.19,447.22 642.72,444.81 634.22,442.57C649.82,421.57 673.4,403.35 675.39,375.3C668.96,386.34 662.4,397.75 651.98,405.59C637.41,418.08 617.12,421.98 604.21,436.67C604.04,426.13 603.67,415.63 603.5,405.13C604.12,396.83 607.9,383.34 611.76,371.56C615.45,360.06 619.19,350.19 620.18,348.11C618.89,350.1 607.27,362.92 601.96,367.37C597.15,343.09 580.88,321.93 558.97,310.56C566.77,322.47 575.03,334.26 579.72,347.83C585.74,362.44 587.52,378.21 590.3,393.6C591.55,400.36 590.38,408.54 590.05,415.39C589.68,422.65 589.01,429.91 588.06,437.09C586.28,450.33 582.17,463.28 577.69,475.81C575.74,481.16 573.75,486.43 571.71,491.75C570.67,494.45 565.49,503.49 566.31,506.11C561.04,489.43 552.24,473.87 540.04,461.25C526.93,448.05 516.34,432.08 510.78,414.19C506.17,400.29 506.17,385.43 502.94,371.24C495.97,387.47 496.3,405.81 499.91,422.82C504.18,440.62 516.76,454.9 521.99,472.37C500.49,473.32 478.25,480.59 460.32,492.99C478.25,484.36 498.12,479.71 517.75,487.18C532.15,490.79 538.66,505.11 545.01,517.06C554.39,537.6 555.38,560.55 553.48,582.75C549.83,596.07 549.16,610.18 545.26,623.46L543.31,624.04L544.22,626.82C543.93,627.65 543.64,628.52 543.31,629.35C543.81,629.14 544.31,628.98 544.85,628.81L545.97,632.3L563.11,648.19L636.77,665.33L607.97,611.8C605.97,608.09 604.48,604.13 603.53,600.03C601.32,590.41 599.08,580.75 597.92,571.01C596.59,559.68 598.25,548.1 603.19,537.85C605.47,533.04 608.29,528.55 612.28,524.9C625.68,511 645.48,507.72 662.7,500.83C669.67,498.01 676.35,492.32 682.29,487.84C687.89,483.65 693.7,479.5 698.43,474.31C699.72,472.9 700.92,471.45 702.12,469.91C709.71,459.95 714.94,447.54 714.94,435.09C701.9,464.29 675.3,485.12 645.71,495.78Z" style="fill:rgb(55,17,10);fill-rule:nonzero;"/>
            </g>
        </g>
        <g transform="matrix(1,0,0,1,-1200,0)">
            <g transform="matrix(0.838399,0,0,0.838399,1335.51,-405.016)">
                <g>
                    <path d="M114.66,795.66L114.66,791.27L115.56,791.22C119.14,791 121.1,790.56 121.41,789.9C121.79,789.3 121.99,788.22 122.02,786.64L122.26,781.97L122.26,739.47L122.02,734.85C121.96,732.65 121.55,731.39 120.8,731.07C120.04,730.73 118.3,730.44 115.56,730.22L114.66,730.17L114.66,725.83L144.38,725.83L144.38,730.17L143.48,730.22C139.8,730.5 137.85,730.94 137.63,731.54C137.22,732.14 137.02,733.24 137.02,734.84L136.79,739.46L136.79,781.96L137.02,786.06C137.15,788.42 137.59,789.75 138.34,790.07C139,790.39 140.19,790.56 141.92,790.59L146.12,790.68L156.64,790.68L160.7,790.49C163.34,790.43 164.84,790.08 165.18,789.45C165.5,788.82 165.67,787.63 165.7,785.87L165.89,780.21L165.89,778.18L175.18,778.18L175.18,795.63L114.66,795.63L114.66,795.66Z" style="fill:rgb(48,170,33);fill-rule:nonzero;"/>
                    <path d="M181.42,795.66L181.42,791.27L182.32,791.22C185.88,791 187.81,790.56 188.12,789.9C188.5,789.27 188.7,788.19 188.73,786.64L188.97,781.97L188.97,739.47L188.73,734.85C188.67,732.68 188.24,731.42 187.46,731.07C186.7,730.69 184.99,730.41 182.32,730.22L181.42,730.17L181.42,725.83L211.09,725.83L211.09,730.17L210.24,730.22C206.59,730.5 204.64,730.94 204.39,731.54C203.98,732.14 203.78,733.24 203.78,734.84L203.54,739.46L203.54,781.96L203.78,786.63C203.84,788.83 204.28,790.1 205.1,790.45C205.92,790.77 207.63,791.01 210.24,791.2L211.09,791.25L211.09,795.64L181.42,795.64L181.42,795.66Z" style="fill:rgb(48,170,33);fill-rule:nonzero;"/>
                    <path d="M218.05,795.66L218.05,791.27L218.95,791.22C222.5,791 224.44,790.56 224.75,789.9C225.13,789.27 225.33,788.19 225.36,786.64L225.59,781.97L225.59,739.47L225.36,734.85C225.29,732.68 224.87,731.42 224.08,731.07C223.33,730.69 221.61,730.41 218.94,730.22L218.04,730.17L218.04,725.83L253.32,725.83C259.96,725.83 265,727.15 268.46,729.79C271.92,732.4 273.65,736.19 273.65,741.16C273.65,746.16 271.64,750.35 267.61,753.71C265.19,755.75 261.67,757.65 257.04,759.42C262.13,760.55 266.05,762.03 268.79,763.85C273.95,767.18 276.52,772.04 276.52,778.43C276.52,789.91 268.83,795.65 253.45,795.65L218.05,795.65L218.05,795.66ZM239.56,757.55L245.17,757.55C249.54,757.55 252.97,756.31 255.45,753.82C257.93,751.34 259.18,747.91 259.18,743.54C259.18,734.83 254.52,730.47 245.22,730.47L239.56,730.47L239.56,757.55ZM239.56,762.22L239.56,782.03C239.56,786.24 240.22,788.73 241.54,789.49C242.67,790.12 244.67,790.43 247.53,790.43C256.96,790.43 261.68,786.11 261.68,777.46C261.68,772.87 260.15,769.17 257.11,766.38C254.09,763.61 250.13,762.23 245.22,762.23L239.56,762.23L239.56,762.22Z" style="fill:rgb(48,170,33);fill-rule:nonzero;"/>
                    <path d="M284.02,795.66L284.02,791.27L284.92,791.22C288.5,791 290.46,790.56 290.77,789.9C291.15,789.3 291.35,788.22 291.38,786.64L291.62,781.97L291.62,739.47L291.38,734.85C291.32,732.65 290.91,731.39 290.16,731.07C289.4,730.73 287.66,730.44 284.92,730.22L284.02,730.17L284.02,725.83L341.05,725.83L341.05,738.33L332.89,738.33L332.84,737.43L332.79,736.2C332.76,735.7 332.72,735.27 332.7,734.93L332.7,734.5C332.67,732.71 332.4,731.64 331.9,731.29C331.36,730.91 330.41,730.69 329.02,730.63L325.81,730.44L306.14,730.44L306.14,756.95L320.53,756.95L325.15,756.86C326.41,756.83 327.16,756.66 327.42,756.34C327.58,756.09 327.69,755.59 327.75,754.83L327.75,754.6L327.7,754.41C327.79,754.32 327.84,754.21 327.84,754.08C327.84,753.33 327.86,752.73 327.89,752.29L327.98,751.39L334.06,751.39L334.06,766.53L327.98,766.53L327.89,765.68C327.89,765.55 327.87,765.33 327.84,765.02C327.81,764.52 327.79,764.14 327.79,763.89L327.79,763.8C327.79,762.1 326.86,761.23 325.01,761.21L320.57,761.02L306.14,761.02L306.14,781.96L306.37,786.06C306.53,788.48 306.97,789.82 307.69,790.07C308.38,790.39 309.59,790.56 311.32,790.59L315.19,790.68L325.71,790.68L331.09,790.54C333.26,790.54 334.44,789.66 334.63,787.9L334.87,783.42L334.96,782.52L343.07,782.52L343.07,795.63L284.02,795.63L284.02,795.66Z" style="fill:rgb(48,170,33);fill-rule:nonzero;"/>
                    <path d="M348.86,795.66L348.86,791.27L349.76,791.22C353.31,791 355.25,790.56 355.56,789.9C355.94,789.27 356.14,788.19 356.17,786.64L356.4,781.97L356.4,739.47L356.17,734.85C356.1,732.68 355.68,731.42 354.89,731.07C354.14,730.69 352.42,730.41 349.75,730.22L348.85,730.17L348.85,725.83L369.18,725.83L373.57,725.74L377.82,725.6L382.02,725.51C387.74,725.39 392.49,726.41 396.26,728.57C401.23,731.4 403.72,736.29 403.72,743.24C403.72,749.09 402.07,753.84 398.76,757.48C396.81,759.59 393.98,761.46 390.27,763.09L403.9,782.1L407.62,786.91C409.6,789.49 411.5,790.88 413.33,791.06L415.6,791.2L416.5,791.25L416.5,795.64L395.7,795.64L376.36,765.07L370.37,765.07L370.37,781.96L370.61,786.63C370.67,788.8 371.06,790.08 371.79,790.45C372.48,790.8 373.86,791.05 375.94,791.2L376.79,791.25L376.79,795.64L348.86,795.64L348.86,795.66ZM370.36,760.42L372.95,760.42C377.89,760.42 381.8,758.96 384.7,756.03C387.59,753.1 389.04,749.13 389.04,744.09C389.04,735 384.58,730.46 375.64,730.46L370.36,730.46L370.36,760.42Z" style="fill:rgb(48,170,33);fill-rule:nonzero;"/>
                    <path d="M429.73,795.66L429.73,791.27L430.58,791.22L433.79,790.99C436.15,790.8 437.48,790.08 437.8,788.82C438.24,786.93 438.46,784.65 438.46,781.98L438.46,730.47L429.92,730.47C426.55,730.47 424.6,730.78 424.07,731.41C423.47,731.97 423.17,733.03 423.17,734.57L423.17,735.18C423.14,736.76 423.08,738.18 422.98,739.47L422.93,740.37L415.38,740.37L415.38,725.84L476.04,725.84L476.04,740.37L468.45,740.37L468.4,738.91L468.21,734.62C468.18,732.51 467.65,731.3 466.61,730.99C465.64,730.65 463.92,730.47 461.47,730.47L452.98,730.47L452.98,781.98L453.26,786.65C453.42,788.76 453.84,789.98 454.53,790.33C455.16,790.68 456.2,790.9 457.64,790.99L460.85,791.22L461.7,791.27L461.7,795.66L429.73,795.66Z" style="fill:rgb(48,170,33);fill-rule:nonzero;"/>
                    <path d="M501.07,795.66L501.07,791.27L501.97,791.22C505.55,791 507.5,790.56 507.82,789.9C508.2,789.27 508.4,788.19 508.43,786.64L508.67,781.97L508.67,765.46L492.82,739.89L491.5,737.77L490.51,736.17C489.95,735.26 489.6,734.68 489.47,734.43C488.12,731.88 486.56,730.53 484.8,730.37L482.3,730.23L481.35,730.18L481.35,725.84L511.63,725.84L511.63,730.18L510.87,730.18L508.51,730.23C506.37,730.26 505.3,730.78 505.3,731.78C505.3,732.85 506.64,735.57 509.31,739.94L521.15,759.37L533.27,739.94C535.94,735.66 537.28,733 537.28,731.96C537.28,730.77 535.75,730.17 532.71,730.17L531.67,730.17L531.67,725.83L550.87,725.83L550.87,730.17L550.02,730.22L547.99,730.41C546.17,730.6 544.67,731.64 543.51,733.52L539.41,739.89L523.18,765.36L523.18,781.96L523.42,786.63C523.48,788.83 523.92,790.1 524.74,790.45C525.55,790.8 527.27,791.05 529.88,791.2L530.73,791.25L530.73,795.64L501.07,795.64L501.07,795.66Z" style="fill:rgb(48,170,33);fill-rule:nonzero;"/>
                    <path d="M581.83,794.81L581.83,780.23L589.38,780.23L589.47,781.36L589.61,784.42C589.7,786.94 590.87,788.97 593.1,790.5C595.24,792.01 597.99,792.77 601.35,792.77C605.13,792.77 608.18,791.61 610.5,789.28C612.82,786.95 613.99,783.93 613.99,780.22C613.99,777.33 613.3,774.99 611.92,773.19C610.47,771.33 607.86,769.38 604.09,767.34L599.42,764.79C587.75,758.44 581.92,751.28 581.92,743.33C581.92,737.64 584.03,733.01 588.24,729.46C592.45,725.88 598.05,724.08 605.03,724.08C610.28,724.08 616.54,725.1 623.81,727.15L623.81,741.21L616.22,741.21L616.17,740.36L616.03,737.2C615.78,731.54 612.63,728.71 606.6,728.71C603.3,728.71 600.59,729.77 598.49,731.87C596.38,733.95 595.33,736.62 595.33,739.89C595.33,742.28 596.02,744.31 597.4,745.97C598.72,747.55 601.32,749.46 605.18,751.73L609.9,754.46C616.82,758.49 621.52,762.01 624,765.03C626.55,768.18 627.82,771.98 627.82,776.45C627.82,782.77 625.45,787.83 620.7,791.64C615.92,795.48 609.53,797.4 601.55,797.4C595.98,797.41 589.41,796.54 581.83,794.81Z" style="fill:rgb(48,170,33);fill-rule:nonzero;"/>
                    <path d="M634.4,795.66L634.4,791.27L635.3,791.22C638.88,791 640.84,790.56 641.15,789.9C641.53,789.3 641.73,788.22 641.76,786.64L642,781.97L642,739.47L641.76,734.85C641.7,732.65 641.29,731.39 640.54,731.07C639.78,730.73 638.04,730.44 635.3,730.22L634.4,730.17L634.4,725.83L691.43,725.83L691.43,738.33L683.27,738.33L683.22,737.43L683.18,736.2C683.15,735.7 683.11,735.27 683.09,734.93L683.09,734.5C683.06,732.71 682.79,731.64 682.29,731.29C681.75,730.91 680.8,730.69 679.41,730.63L676.2,730.44L656.53,730.44L656.53,756.95L670.92,756.95L675.54,756.86C676.8,756.83 677.55,756.66 677.81,756.34C677.97,756.09 678.08,755.59 678.14,754.83L678.14,754.6L678.1,754.41C678.19,754.32 678.24,754.21 678.24,754.08C678.24,753.33 678.26,752.73 678.29,752.29L678.38,751.39L684.46,751.39L684.46,766.53L678.38,766.53L678.29,765.68C678.29,765.55 678.27,765.33 678.24,765.02C678.21,764.52 678.2,764.14 678.2,763.89L678.2,763.8C678.2,762.1 677.27,761.23 675.42,761.21L670.98,761.02L656.55,761.02L656.55,781.96L656.78,786.06C656.94,788.48 657.38,789.82 658.1,790.07C658.79,790.39 660,790.56 661.73,790.59L665.6,790.68L676.12,790.68L681.5,790.54C683.67,790.54 684.85,789.66 685.04,787.9L685.28,783.42L685.37,782.52L693.48,782.52L693.48,795.63L634.4,795.63L634.4,795.66Z" style="fill:rgb(48,170,33);fill-rule:nonzero;"/>
                    <path d="M762.87,786.37L762.87,792.97C755.32,795.92 747.38,797.41 739.05,797.41C726.82,797.41 717.37,794.22 710.7,787.83C704.03,781.48 700.7,772.42 700.7,760.66C700.7,748.87 703.94,739.83 710.42,733.54C716.9,727.25 726.27,724.1 738.53,724.1C745.7,724.1 753.4,725.12 761.65,727.17L761.65,741.56L753.49,741.56L753.49,740.66L753.35,737.92C753.19,734.65 751.71,732.29 748.91,730.85C746.3,729.43 742.98,728.73 738.96,728.73C730.41,728.73 724.34,731.88 720.75,738.17C717.7,743.55 716.18,750.9 716.18,760.25C716.18,781.13 724.78,791.57 741.98,791.57C748.1,791.55 755.07,789.83 762.87,786.37Z" style="fill:rgb(48,170,33);fill-rule:nonzero;"/>
                    <path d="M768.83,730.47L768.83,725.85L798.5,725.85L798.5,730.19L797.65,730.24C794,730.52 792.06,730.96 791.85,731.56C791.44,732.16 791.24,733.26 791.24,734.86L791,739.48L791,769.67C791,778.25 792.08,784.26 794.26,787.69C796.49,791.12 800.33,792.83 805.77,792.83C811.53,792.83 815.73,790.94 818.36,787.17C821,783.4 822.33,777.44 822.33,769.29L822.33,739.48L822.09,734.86C822.02,732.66 821.62,731.4 820.86,731.08C820.14,730.74 818.39,730.45 815.63,730.23L814.78,730.18L814.78,725.84L836.76,725.84L836.76,730.18L835.86,730.23C832.31,730.48 830.42,730.92 830.2,731.55C829.79,732.15 829.59,733.25 829.59,734.85L829.31,739.47L829.31,768.15C829.31,778.12 827.25,785.48 823.13,790.23C819.01,795.01 812.58,797.4 803.84,797.4C785.54,797.4 776.38,787.96 776.38,769.1L776.38,739.81L776.15,735.14C776.08,732.97 775.61,731.69 774.73,731.32C773.88,730.94 772.2,730.68 769.68,730.52L768.83,730.47Z" style="fill:rgb(48,170,33);fill-rule:nonzero;"/>
                    <path d="M840.7,795.66L840.7,791.27L841.6,791.22C845.15,791 847.09,790.56 847.4,789.9C847.78,789.27 847.98,788.19 848.01,786.64L848.24,781.97L848.24,739.47L848.01,734.85C847.94,732.68 847.52,731.42 846.73,731.07C845.98,730.69 844.26,730.41 841.59,730.22L840.69,730.17L840.69,725.83L861.02,725.83L865.41,725.74L869.66,725.6L873.86,725.51C879.58,725.39 884.33,726.41 888.1,728.57C893.07,731.4 895.56,736.29 895.56,743.24C895.56,749.09 893.91,753.84 890.6,757.48C888.65,759.59 885.82,761.46 882.11,763.09L895.74,782.1L899.46,786.91C901.44,789.49 903.34,790.88 905.17,791.06L907.44,791.2L908.34,791.25L908.34,795.64L887.54,795.64L868.2,765.07L862.21,765.07L862.21,781.96L862.45,786.63C862.51,788.8 862.9,790.08 863.63,790.45C864.32,790.8 865.7,791.05 867.78,791.2L868.63,791.25L868.63,795.64L840.7,795.64L840.7,795.66ZM862.21,760.42L864.8,760.42C869.74,760.42 873.65,758.96 876.55,756.03C879.44,753.1 880.89,749.13 880.89,744.09C880.89,735 876.43,730.46 867.49,730.46L862.21,730.46L862.21,760.42Z" style="fill:rgb(48,170,33);fill-rule:nonzero;"/>
                    <path d="M913.36,795.66L913.36,791.27L914.26,791.22C917.82,791 919.75,790.56 920.06,789.9C920.44,789.27 920.64,788.19 920.67,786.64L920.91,781.97L920.91,739.47L920.67,734.85C920.61,732.68 920.18,731.42 919.4,731.07C918.64,730.69 916.93,730.41 914.26,730.22L913.36,730.17L913.36,725.83L943.03,725.83L943.03,730.17L942.18,730.22C938.53,730.5 936.58,730.94 936.33,731.54C935.92,732.14 935.72,733.24 935.72,734.84L935.48,739.46L935.48,781.96L935.72,786.63C935.78,788.83 936.22,790.1 937.04,790.45C937.86,790.77 939.57,791.01 942.18,791.2L943.03,791.25L943.03,795.64L913.36,795.64L913.36,795.66Z" style="fill:rgb(48,170,33);fill-rule:nonzero;"/>
                    <path d="M964.19,795.66L964.19,791.27L965.04,791.22L968.25,790.99C970.61,790.8 971.94,790.08 972.26,788.82C972.7,786.93 972.92,784.65 972.92,781.98L972.92,730.47L964.38,730.47C961.01,730.47 959.06,730.78 958.53,731.41C957.93,731.97 957.63,733.03 957.63,734.57L957.63,735.18C957.6,736.76 957.54,738.18 957.44,739.47L957.4,740.37L949.85,740.37L949.85,725.84L1010.51,725.84L1010.51,740.37L1002.92,740.37L1002.87,738.91L1002.68,734.62C1002.65,732.51 1002.12,731.3 1001.08,730.99C1000.11,730.65 998.39,730.47 995.94,730.47L987.45,730.47L987.45,781.98L987.73,786.65C987.89,788.76 988.31,789.98 989,790.33C989.63,790.68 990.67,790.9 992.11,790.99L995.32,791.22L996.17,791.27L996.17,795.66L964.19,795.66Z" style="fill:rgb(48,170,33);fill-rule:nonzero;"/>
                    <path d="M1035.53,795.66L1035.53,791.27L1036.43,791.22C1040.01,791 1041.96,790.56 1042.28,789.9C1042.66,789.27 1042.86,788.19 1042.89,786.64L1043.13,781.97L1043.13,765.46L1027.28,739.89L1025.96,737.77L1024.97,736.17C1024.41,735.26 1024.06,734.68 1023.93,734.43C1022.58,731.88 1021.02,730.53 1019.26,730.37L1016.76,730.23L1015.81,730.18L1015.81,725.84L1046.09,725.84L1046.09,730.18L1045.33,730.18L1042.97,730.23C1040.83,730.26 1039.76,730.78 1039.76,731.78C1039.76,732.85 1041.1,735.57 1043.77,739.94L1055.61,759.37L1067.73,739.94C1070.4,735.66 1071.74,733 1071.74,731.96C1071.74,730.77 1070.21,730.17 1067.17,730.17L1066.13,730.17L1066.13,725.83L1085.33,725.83L1085.33,730.17L1084.48,730.22L1082.45,730.41C1080.62,730.6 1079.13,731.64 1077.97,733.52L1073.87,739.89L1057.64,765.36L1057.64,781.96L1057.88,786.63C1057.94,788.83 1058.38,790.1 1059.2,790.45C1060.01,790.8 1061.73,791.05 1064.34,791.2L1065.19,791.25L1065.19,795.64L1035.53,795.64L1035.53,795.66Z" style="fill:rgb(48,170,33);fill-rule:nonzero;"/>
                </g>
                <g>
                    <g>
                        <g>
                            <path d="M410.47,816.22L395.71,816.22L395.71,824.92L408.9,824.92L408.9,827.43L395.71,827.43L395.71,838.04L392.96,838.04L392.96,813.68L410.47,813.68L410.47,816.22Z" style="fill:rgb(55,17,10);fill-rule:nonzero;"/>
                        </g>
                        <g>
                            <path d="M457.63,830.64C457.03,832.16 456.18,833.5 455.09,834.66C454,835.82 452.69,836.74 451.16,837.43C449.63,838.12 447.93,838.46 446.08,838.46C444.23,838.46 442.54,838.12 441.02,837.45C439.5,836.78 438.19,835.87 437.1,834.72C436.01,833.57 435.17,832.24 434.58,830.72C433.99,829.2 433.69,827.59 433.69,825.9C433.69,824.21 433.99,822.6 434.59,821.08C435.19,819.56 436.04,818.22 437.13,817.06C438.22,815.9 439.53,814.98 441.06,814.29C442.59,813.61 444.29,813.26 446.14,813.26C447.99,813.26 449.68,813.6 451.2,814.27C452.72,814.94 454.02,815.85 455.11,817C456.2,818.15 457.04,819.48 457.63,821C458.22,822.52 458.52,824.13 458.52,825.82C458.53,827.52 458.23,829.12 457.63,830.64ZM454.97,821.96C454.49,820.73 453.83,819.66 452.97,818.76C452.11,817.85 451.1,817.14 449.92,816.6C448.75,816.07 447.47,815.8 446.07,815.8C444.68,815.8 443.4,816.06 442.22,816.58C441.05,817.1 440.04,817.81 439.21,818.72C438.38,819.62 437.72,820.69 437.24,821.9C436.76,823.12 436.53,824.42 436.53,825.81C436.53,827.2 436.77,828.51 437.24,829.74C437.71,830.97 438.38,832.04 439.24,832.94C440.1,833.84 441.11,834.56 442.29,835.1C443.46,835.63 444.74,835.9 446.14,835.9C447.53,835.9 448.81,835.64 449.99,835.12C451.16,834.6 452.17,833.88 453,832.98C453.83,832.08 454.49,831.01 454.97,829.8C455.44,828.58 455.68,827.28 455.68,825.88C455.68,824.5 455.44,823.19 454.97,821.96Z" style="fill:rgb(55,17,10);fill-rule:nonzero;"/>
                        </g>
                        <g>
                            <path d="M503.75,827.63C503.75,829.42 503.51,830.98 503.02,832.33C502.53,833.67 501.84,834.8 500.95,835.7C500.06,836.61 498.99,837.28 497.75,837.74C496.51,838.19 495.12,838.42 493.59,838.42C492.08,838.42 490.71,838.19 489.47,837.74C488.23,837.29 487.16,836.62 486.27,835.72C485.38,834.83 484.69,833.72 484.2,832.4C483.71,831.08 483.47,829.56 483.47,827.84L483.47,813.67L486.22,813.67L486.22,827.66C486.22,830.3 486.88,832.34 488.19,833.75C489.5,835.17 491.33,835.87 493.67,835.87C495.92,835.87 497.71,835.2 499.03,833.85C500.35,832.51 501.02,830.5 501.02,827.83L501.02,813.66L503.77,813.66L503.77,827.63L503.75,827.63Z" style="fill:rgb(55,17,10);fill-rule:nonzero;"/>
                        </g>
                        <g>
                            <path d="M547.67,813.68L550.35,813.68L550.35,838.04L548.16,838.04L532.43,818.06L532.43,838.04L529.75,838.04L529.75,813.68L532.32,813.68L547.67,833.2L547.67,813.68Z" style="fill:rgb(55,17,10);fill-rule:nonzero;"/>
                        </g>
                        <g>
                            <path d="M597.2,830.64C596.57,832.14 595.69,833.43 594.54,834.52C593.39,835.61 592.02,836.47 590.43,837.1C588.84,837.73 587.09,838.04 585.19,838.04L576.73,838.04L576.73,813.68L585.19,813.68C587.09,813.68 588.84,813.99 590.43,814.6C592.02,815.22 593.39,816.07 594.54,817.16C595.69,818.25 596.58,819.54 597.2,821.02C597.83,822.51 598.14,824.11 598.14,825.82C598.14,827.54 597.83,829.15 597.2,830.64ZM594.57,822.1C594.1,820.92 593.42,819.89 592.55,819.02C591.68,818.15 590.62,817.47 589.37,816.97C588.12,816.47 586.72,816.22 585.19,816.22L579.48,816.22L579.48,835.5L585.19,835.5C586.72,835.5 588.11,835.26 589.37,834.77C590.62,834.28 591.68,833.61 592.55,832.73C593.42,831.86 594.09,830.85 594.57,829.68C595.05,828.52 595.28,827.25 595.28,825.89C595.29,824.55 595.05,823.28 594.57,822.1Z" style="fill:rgb(55,17,10);fill-rule:nonzero;"/>
                        </g>
                        <g>
                            <path d="M644.53,838.04L641.57,838.04L638.72,831.6L625.46,831.6L622.57,838.04L619.75,838.04L630.85,813.5L633.42,813.5L644.53,838.04ZM632.11,816.74L626.54,829.17L637.64,829.17L632.11,816.74Z" style="fill:rgb(55,17,10);fill-rule:nonzero;"/>
                        </g>
                        <g>
                            <path d="M674.88,838.04L672.13,838.04L672.13,816.22L663.95,816.22L663.95,813.68L683.06,813.68L683.06,816.22L674.88,816.22L674.88,838.04Z" style="fill:rgb(55,17,10);fill-rule:nonzero;"/>
                        </g>
                        <g>
                            <rect x="707.98" y="813.68" width="2.75" height="24.36" style="fill:rgb(55,17,10);fill-rule:nonzero;"/>
                        </g>
                        <g>
                            <path d="M760.22,830.64C759.62,832.16 758.77,833.5 757.68,834.66C756.59,835.82 755.28,836.74 753.75,837.43C752.22,838.12 750.52,838.46 748.67,838.46C746.81,838.46 745.13,838.12 743.61,837.45C742.09,836.78 740.78,835.87 739.69,834.72C738.6,833.57 737.76,832.24 737.17,830.72C736.58,829.2 736.28,827.59 736.28,825.9C736.28,824.21 736.58,822.6 737.18,821.08C737.78,819.56 738.63,818.22 739.72,817.06C740.81,815.9 742.12,814.98 743.65,814.29C745.18,813.61 746.88,813.26 748.73,813.26C750.58,813.26 752.27,813.6 753.79,814.27C755.31,814.94 756.61,815.85 757.7,817C758.79,818.15 759.63,819.48 760.22,821C760.81,822.52 761.11,824.13 761.11,825.82C761.13,827.52 760.83,829.12 760.22,830.64ZM757.56,821.96C757.08,820.73 756.42,819.66 755.56,818.76C754.7,817.85 753.69,817.14 752.51,816.6C751.34,816.07 750.06,815.8 748.66,815.8C747.27,815.8 745.99,816.06 744.81,816.58C743.64,817.1 742.63,817.81 741.8,818.72C740.97,819.62 740.31,820.69 739.83,821.9C739.35,823.12 739.12,824.42 739.12,825.81C739.12,827.2 739.36,828.51 739.83,829.74C740.3,830.97 740.97,832.04 741.83,832.94C742.69,833.84 743.7,834.56 744.88,835.1C746.05,835.63 747.33,835.9 748.73,835.9C750.12,835.9 751.4,835.64 752.58,835.12C753.75,834.6 754.76,833.88 755.59,832.98C756.42,832.08 757.08,831.01 757.56,829.8C758.03,828.58 758.27,827.28 758.27,825.88C758.27,824.5 758.04,823.19 757.56,821.96Z" style="fill:rgb(55,17,10);fill-rule:nonzero;"/>
                        </g>
                        <g>
                            <path d="M804.36,813.68L807.04,813.68L807.04,838.04L804.85,838.04L789.12,818.06L789.12,838.04L786.44,838.04L786.44,813.68L789.01,813.68L804.36,833.2L804.36,813.68Z" style="fill:rgb(55,17,10);fill-rule:nonzero;"/>
                        </g>
                    </g>
                </g>
                <g>
                    <g>
                        <rect x="836.24" y="824.12" width="249.11" height="3.49" style="fill:rgb(55,17,10);"/>
                    </g>
                </g>
                <g>
                    <rect x="114.66" y="824.12" width="249.11" height="3.49" style="fill:rgb(55,17,10);"/>
                </g>
            </g>
        </g>
    </g>
</svg>
