<?xml version="1.0" encoding="UTF-8" standalone="no"?>
<!DOCTYPE svg PUBLIC "-//W3C//DTD SVG 1.1//EN" "http://www.w3.org/Graphics/SVG/1.1/DTD/svg11.dtd">
<svg width="100%" height="100%" viewBox="0 0 378 351" version="1.1" xmlns="http://www.w3.org/2000/svg" xmlns:xlink="http://www.w3.org/1999/xlink" xml:space="preserve" xmlns:serif="http://www.serif.com/" style="fill-rule:evenodd;clip-rule:evenodd;stroke-linejoin:round;stroke-miterlimit:2;">
    <g transform="matrix(1,0,0,1,-516.878,-618.376)">
        <g transform="matrix(1,0,0,1,-0.250263,0)">
            <g transform="matrix(0.652684,0,0,0.652684,314.137,512.94)">
                <g>
                    <g>
                        <path d="M401.07,626.66C440.73,615.34 484.43,610.18 525.38,617.47C566.83,624.85 604.94,645.35 645.73,655.37C698.03,668.21 752.23,673.41 805.95,675.19C824.09,675.79 842.24,676.16 860.39,676.64C866.67,676.81 872.95,677.08 879.24,677.27C881.8,677.34 885.56,677.58 889,678.09C888.39,678.87 792.97,695.77 744.39,694.98C716.6,694.52 688.91,692.16 661.46,688.05C606.68,679.84 555.17,657.89 500.75,648.07C473.27,643.11 445.31,641.56 417.63,645.74C394.63,649.21 371.94,654.84 349.58,661.18C336.64,664.85 323.73,668.72 311.01,673.11C318.67,664.31 362.33,637.72 401.07,626.66Z" style="fill:rgb(55,17,10);fill-rule:nonzero;"/>
                    </g>
                    <g>
                        <path d="M336.5,678.02C361.54,664.69 391.16,655.22 442.75,653.42C462.33,652.74 481.99,653.83 501.17,657.78C546.78,667.17 581.68,683.16 602.02,698.17C530.85,669.3 441.78,663.44 336.5,678.02Z" style="fill:rgb(75,175,0);fill-rule:nonzero;"/>
                    </g>
                </g>
                <path d="M845.36,312.27C818.09,260.59 774.33,217.8 722.08,191.66C671.14,165.72 612.34,156.64 555.78,164.02C514.26,170.29 472.94,184.48 438.75,209.11C429.58,213.85 421.41,220.15 413.58,226.82C384.24,251.68 358.58,282.04 342.41,317.09C318.2,360.14 309.72,410.88 311.17,459.89C315.43,414.68 329.81,370.53 353.79,331.9C377.54,293.3 411.2,261.18 449.94,237.82C489.47,213.7 535.16,201.38 581.13,198.03C622.45,196.78 664.22,203.37 702.45,219.31C758.81,242.35 807.17,284.1 838.36,336.34C860.84,373.35 873.63,415.6 878,458.57C880.49,408.05 869.17,356.91 845.36,312.27Z" style="fill:rgb(75,175,0);fill-rule:nonzero;"/>
                <path d="M421.57,493.83C430.65,486.12 444.93,487.85 453.07,496.13C446.57,502.27 425.65,518.16 422.51,520.92C426.38,519.08 448.9,505.64 456.62,501.36C460.2,508.99 459.74,518.44 454.83,525.37C451.32,530.77 445.28,533.35 439.6,535.77C426.7,539.74 413,538.89 399.91,536.38C402.89,520.67 408.4,503.93 421.57,493.83Z" style="fill:rgb(75,175,0);fill-rule:nonzero;"/>
                <path d="M529.39,343.09C528.46,354.97 517.17,363.87 505.56,363.81C505.78,354.87 509.26,328.83 509.52,324.66C508.09,328.7 501.76,354.15 499.36,362.64C491.42,359.81 485.04,352.82 483.58,344.45C482.23,338.15 484.65,332.05 486.93,326.32C493.21,314.37 503.46,305.24 514.47,297.73C523.52,310.92 531.5,326.63 529.39,343.09Z" style="fill:rgb(75,175,0);fill-rule:nonzero;"/>
                <path d="M548.32,255.95C556.76,264.36 556.2,278.73 548.63,287.53C541.97,281.56 524.41,262.02 521.41,259.12C523.56,262.83 538.81,284.16 543.72,291.5C536.41,295.7 526.95,296.02 519.64,291.7C513.97,288.64 510.9,282.84 508.02,277.38C503,264.85 502.71,251.12 504.14,237.88C520.03,239.54 537.17,243.66 548.32,255.95Z" style="fill:rgb(75,175,0);fill-rule:nonzero;"/>
                <path d="M653.34,328.76C649.08,339.28 636.25,344.12 625.73,340.73C628.5,332.67 639.16,310.02 640.6,306.3C638.14,309.56 625.06,330.86 620.43,337.88C614.04,333.02 610.25,324.83 611.34,316.81C611.92,310.7 615.88,305.85 619.61,301.3C628.75,292.26 640.7,286.92 652.86,283.26C657.27,297.84 660,314.41 653.34,328.76Z" style="fill:rgb(75,175,0);fill-rule:nonzero;"/>
                <path d="M707.71,343.89C705.94,355.11 694.55,362.72 683.53,361.8C684.4,353.32 689.65,328.84 690.21,324.9C688.55,328.64 680.64,352.34 677.72,360.23C670.39,356.95 664.85,349.83 664.09,341.77C663.27,335.69 666.03,330.07 668.63,324.79C675.48,313.91 685.91,306 696.92,299.68C704.53,312.88 710.95,328.4 707.71,343.89Z" style="fill:rgb(75,175,0);fill-rule:nonzero;"/>
                <path d="M484.51,409.51C489.07,411.92 490.67,417.93 488.65,422.53C485.14,420.91 475.39,415.06 473.78,414.24C475.14,415.5 484.16,422.38 487.12,424.79C484.63,427.46 480.76,428.79 477.19,427.93C474.46,427.39 472.45,425.38 470.57,423.49C466.9,418.95 465.04,413.31 463.94,407.65C470.73,406.32 478.34,405.84 484.51,409.51Z" style="fill:rgb(75,175,0);fill-rule:nonzero;"/>
                <path d="M541.96,396.34C535.23,402.58 524.19,401.73 517.65,395.63C522.44,390.68 538.01,377.75 540.33,375.53C537.41,377.08 520.54,388.18 514.74,391.73C511.72,385.98 511.76,378.69 515.3,373.19C517.82,368.92 522.38,366.73 526.66,364.67C536.45,361.18 547.03,361.37 557.18,362.86C555.44,375.06 551.76,388.12 541.96,396.34Z" style="fill:rgb(75,175,0);fill-rule:nonzero;"/>
                <path d="M681.02,434.14C677.51,438.96 670.36,439.79 665.43,436.72C667.87,432.97 676.18,422.79 677.39,421.08C675.72,422.43 666.35,431.61 663.09,434.6C660.45,431.31 659.57,426.66 661.14,422.71C662.22,419.67 664.85,417.71 667.33,415.86C673.14,412.42 679.9,411.22 686.56,410.9C686.96,418.9 686.24,427.69 681.02,434.14Z" style="fill:rgb(75,175,0);fill-rule:nonzero;"/>
                <path d="M676.98,464.72C671.03,465.11 665.82,460.14 665.02,454.39C669.46,453.86 682.61,453.74 684.69,453.57C682.59,453.15 669.53,451.82 665.15,451.24C665.99,447.11 669,443.45 673.04,442.13C676.06,441.01 679.26,441.78 682.26,442.5C688.62,444.76 693.87,449.19 698.38,454.11C692.5,459.53 685.28,464.6 676.98,464.72Z" style="fill:rgb(75,175,0);fill-rule:nonzero;"/>
                <path d="M744.55,462.71C740.62,467.19 733.42,467.37 728.79,463.87C731.56,460.35 740.76,450.97 742.11,449.37C740.33,450.56 730.16,458.86 726.65,461.54C724.32,458.03 723.86,453.31 725.78,449.52C727.13,446.59 729.93,444.87 732.56,443.26C738.66,440.36 745.5,439.77 752.16,440.06C751.85,448.07 750.34,456.75 744.55,462.71Z" style="fill:rgb(75,175,0);fill-rule:nonzero;"/>
                <path d="M687.33,507.54C685.19,501.98 688.37,495.52 693.62,493.05C695.45,497.13 699.49,509.64 700.27,511.58C700.04,509.45 697.42,496.59 696.67,492.24C700.86,491.81 705.25,493.59 707.72,497.05C709.69,499.6 709.91,502.88 710.11,505.96C709.85,512.71 707.19,519.04 703.84,524.81C696.91,520.8 689.92,515.43 687.33,507.54Z" style="fill:rgb(75,175,0);fill-rule:nonzero;"/>
                <path d="M596.88,292.88C594.05,301.61 583.99,306.25 575.31,304.12C577.08,297.46 584.36,278.59 585.31,275.51C583.52,278.28 574.2,296.2 570.87,302.13C565.43,298.58 561.91,292.2 562.32,285.67C562.44,280.71 565.35,276.57 568.09,272.69C574.94,264.87 584.26,259.88 593.85,256.23C598.26,267.73 601.42,280.93 596.88,292.88Z" style="fill:rgb(75,175,0);fill-rule:nonzero;"/>
                <path d="M706.38,402.53C698.54,407.29 687.89,404.23 682.71,396.95C688.4,393.07 706.25,383.53 708.97,381.82C705.8,382.75 687.04,390.23 680.65,392.54C678.85,386.3 680.36,379.17 684.93,374.49C688.26,370.81 693.17,369.58 697.78,368.43C708.07,366.99 718.39,369.29 728.04,372.8C723.86,384.4 717.63,396.45 706.38,402.53Z" style="fill:rgb(75,175,0);fill-rule:nonzero;"/>
                <path d="M742.43,423.09C738.31,431.29 727.66,434.34 719.4,430.92C722.16,424.61 732.23,407.06 733.63,404.16C731.43,406.63 719.5,422.92 715.31,428.28C710.48,423.95 707.96,417.1 709.36,410.71C710.23,405.83 713.74,402.18 717.03,398.76C724.99,392.07 734.96,388.55 745,386.4C747.62,398.45 748.74,411.97 742.43,423.09Z" style="fill:rgb(75,175,0);fill-rule:nonzero;"/>
                <path d="M727.13,507.11C718.77,503.32 715.29,492.81 718.37,484.42C724.79,486.92 742.73,496.28 745.68,497.56C743.13,495.47 726.36,484.2 720.84,480.23C724.97,475.23 731.71,472.44 738.15,473.58C743.07,474.25 746.85,477.61 750.4,480.77C757.4,488.45 761.32,498.27 763.88,508.21C751.97,511.3 738.5,512.96 727.13,507.11Z" style="fill:rgb(75,175,0);fill-rule:nonzero;"/>
                <path d="M665.6,365.9C669.16,372.64 666.1,381.32 659.81,385.26C656.87,380.35 649.84,365.09 648.55,362.74C649.16,365.41 654.45,381.34 656.05,386.75C650.79,387.93 644.95,386.34 641.3,382.31C638.41,379.37 637.64,375.24 636.91,371.36C636.22,362.75 638.64,354.31 642.01,346.48C651.42,350.52 661.11,356.28 665.6,365.9Z" style="fill:rgb(75,175,0);fill-rule:nonzero;"/>
                <path d="M469.27,510.32C469.69,501.15 478.16,494.02 487.09,493.77C487.15,500.66 485.12,520.79 485.02,524.01C486.02,520.86 490.26,501.11 491.89,494.51C498.07,496.49 503.16,501.72 504.49,508.12C505.69,512.93 503.98,517.69 502.36,522.16C497.83,531.51 490.16,538.8 481.88,544.86C474.59,534.94 468.05,523.05 469.27,510.32Z" style="fill:rgb(75,175,0);fill-rule:nonzero;"/>
                <path d="M461.83,391.32C468.56,397.56 479.6,396.71 486.14,390.61C481.35,385.66 465.78,372.73 463.46,370.51C466.38,372.06 483.25,383.16 489.05,386.71C492.07,380.96 492.03,373.67 488.49,368.17C485.97,363.9 481.41,361.71 477.13,359.65C467.34,356.16 456.76,356.35 446.61,357.84C448.35,370.04 452.03,383.1 461.83,391.32Z" style="fill:rgb(75,175,0);fill-rule:nonzero;"/>
                <path d="M547.94,341.78C552.1,345.64 558.93,345.11 562.97,341.34C560.01,338.28 550.38,330.29 548.94,328.91C550.75,329.87 561.18,336.73 564.76,338.93C566.62,335.38 566.6,330.87 564.41,327.47C562.85,324.83 560.03,323.47 557.38,322.2C551.33,320.04 544.79,320.16 538.51,321.08C539.61,328.62 541.88,336.7 547.94,341.78Z" style="fill:rgb(75,175,0);fill-rule:nonzero;"/>
                <path d="M563.64,438.79C566.69,443.57 573.44,444.78 578.3,442.16C576.2,438.45 568.9,428.29 567.86,426.6C569.37,427.98 577.73,437.25 580.65,440.28C583.35,437.31 584.46,432.94 583.2,429.1C582.36,426.15 579.97,424.13 577.73,422.23C572.41,418.62 566.06,417.08 559.75,416.39C558.89,423.95 559.05,432.35 563.64,438.79Z" style="fill:rgb(75,175,0);fill-rule:nonzero;"/>
                <path d="M658.14,460.9C654.49,456.55 647.65,456.23 643.17,459.47C645.73,462.87 654.29,472 655.55,473.54C653.88,472.37 644.37,464.26 641.09,461.64C638.8,464.94 638.26,469.41 640.02,473.06C641.24,475.88 643.87,477.57 646.34,479.16C652.08,482.05 658.58,482.75 664.93,482.61C664.78,474.99 663.52,466.69 658.14,460.9Z" style="fill:rgb(75,175,0);fill-rule:nonzero;"/>
                <path d="M540.79,424.61C538.41,429.64 532,431.64 526.94,429.68C528.53,425.82 534.38,415.04 535.19,413.26C533.89,414.79 526.89,424.83 524.43,428.13C521.44,425.57 519.82,421.46 520.58,417.57C521.04,414.6 523.11,412.34 525.06,410.22C529.79,406.06 535.78,403.78 541.84,402.34C543.59,409.6 544.45,417.79 540.79,424.61Z" style="fill:rgb(75,175,0);fill-rule:nonzero;"/>
                <path d="M624.68,405.09C622.15,408.89 616.7,409.75 612.83,407.56C614.58,404.61 620.61,396.56 621.48,395.21C620.25,396.3 613.36,403.62 610.97,406.01C608.85,403.58 608.02,400.04 609.1,396.97C609.83,394.61 611.78,393.02 613.61,391.53C617.95,388.71 623.08,387.58 628.17,387.12C628.74,393.23 628.47,399.98 624.68,405.09Z" style="fill:rgb(75,175,0);fill-rule:nonzero;"/>
                <path d="M452.23,449.39C461.31,450.72 467.57,459.86 466.92,468.78C460.06,468.15 440.23,464.12 437.04,463.71C440.07,465.02 459.3,471.21 465.7,473.49C463.11,479.44 457.41,483.98 450.9,484.67C445.99,485.38 441.43,483.2 437.14,481.15C428.29,475.71 421.8,467.35 416.6,458.5C427.2,452.23 439.69,446.91 452.23,449.39Z" style="fill:rgb(75,175,0);fill-rule:nonzero;"/>
                <path d="M645.71,495.78C630.98,499.06 615.58,500.97 600.85,496.4C601.85,488.51 603.96,480.84 606.83,473.45C610.48,467.14 613.88,460.42 619.69,455.85C625.21,451.12 645.3,450.37 645.3,450.37C649.99,450.37 654.76,450.37 659.53,450.25C651.19,447.22 642.72,444.81 634.22,442.57C649.82,421.57 673.4,403.35 675.39,375.3C668.96,386.34 662.4,397.75 651.98,405.59C637.41,418.08 617.12,421.98 604.21,436.67C604.04,426.13 603.67,415.63 603.5,405.13C604.12,396.83 607.9,383.34 611.76,371.56C615.45,360.06 619.19,350.19 620.18,348.11C618.89,350.1 607.27,362.92 601.96,367.37C597.15,343.09 580.88,321.93 558.97,310.56C566.77,322.47 575.03,334.26 579.72,347.83C585.74,362.44 587.52,378.21 590.3,393.6C591.55,400.36 590.38,408.54 590.05,415.39C589.68,422.65 589.01,429.91 588.06,437.09C586.28,450.33 582.17,463.28 577.69,475.81C575.74,481.16 573.75,486.43 571.71,491.75C570.67,494.45 565.49,503.49 566.31,506.11C561.04,489.43 552.24,473.87 540.04,461.25C526.93,448.05 516.34,432.08 510.78,414.19C506.17,400.29 506.17,385.43 502.94,371.24C495.97,387.47 496.3,405.81 499.91,422.82C504.18,440.62 516.76,454.9 521.99,472.37C500.49,473.32 478.25,480.59 460.32,492.99C478.25,484.36 498.12,479.71 517.75,487.18C532.15,490.79 538.66,505.11 545.01,517.06C554.39,537.6 555.38,560.55 553.48,582.75C549.83,596.07 549.16,610.18 545.26,623.46L543.31,624.04L544.22,626.82C543.93,627.65 543.64,628.52 543.31,629.35C543.81,629.14 544.31,628.98 544.85,628.81L545.97,632.3L563.11,648.19L636.77,665.33L607.97,611.8C605.97,608.09 604.48,604.13 603.53,600.03C601.32,590.41 599.08,580.75 597.92,571.01C596.59,559.68 598.25,548.1 603.19,537.85C605.47,533.04 608.29,528.55 612.28,524.9C625.68,511 645.48,507.72 662.7,500.83C669.67,498.01 676.35,492.32 682.29,487.84C687.89,483.65 693.7,479.5 698.43,474.31C699.72,472.9 700.92,471.45 702.12,469.91C709.71,459.95 714.94,447.54 714.94,435.09C701.9,464.29 675.3,485.12 645.71,495.78Z" style="fill:rgb(55,17,10);fill-rule:nonzero;"/>
            </g>
        </g>
    </g>
</svg>
